<svg width="230" height="308" viewBox="0 0 230 308" fill="none" xmlns="http://www.w3.org/2000/svg">
<path fill-rule="evenodd" clip-rule="evenodd" d="M107.54 0.256458C99.8538 0.686983 88.9847 2.35395 83.4031 3.95872C82.6065 4.18793 81.4476 4.47484 80.828 4.59633C77.5727 5.23587 66.2733 9.21991 59.905 11.9736C57.3746 13.068 47.356 18.1225 46.7895 18.5905C45.977 19.2621 45.8148 18.9402 53.5518 31.9871C55.0669 34.542 56.5013 36.7549 56.7391 36.9043C57.0211 37.0816 58.459 36.5661 60.8719 35.423C79.6998 26.5028 96.8026 22.3723 114.908 22.3723C123.165 22.3723 134.041 23.6032 140.7 25.2914C148.812 27.3478 155.158 29.3806 161.14 31.8384C162.734 32.493 164.689 33.2864 165.486 33.6009C166.282 33.9157 168.283 34.8277 169.932 35.6278C171.581 36.4283 173.105 37.0159 173.32 36.9338C173.534 36.8518 174.397 35.5256 175.236 33.9865C176.076 32.4471 177.142 30.5388 177.605 29.7454C180.532 24.731 183.512 19.1165 183.512 18.6168C183.512 18.1789 182.106 17.3255 177.959 15.246C170.874 11.6934 165.17 9.32602 158.048 6.98041C145.162 2.73735 135.565 0.930616 122.352 0.259984C115.542 -0.0859107 113.662 -0.0862313 107.54 0.256458ZM123.087 1.66216C124.517 2.27989 125.968 3.70355 127.333 5.82828C128.219 7.20738 128.671 7.62604 129.274 7.62604C129.823 7.62604 130.212 7.91712 130.56 8.58775L131.06 9.54946H129.963H128.867L128.636 12.8353C128.509 14.6427 128.311 16.6722 128.195 17.3457L127.985 18.57L127.12 17.6663L126.255 16.7623L126.599 13.1446C126.788 11.1549 126.888 9.47605 126.82 9.41418C126.753 9.35199 125.937 9.1994 125.008 9.07469L123.318 8.84805L123.289 11.8435C123.274 13.4909 123.166 15.538 123.048 16.3927L122.835 17.9465L121.95 17.2508C121.463 16.8684 121.065 16.2619 121.065 15.9032C121.065 15.4098 120.927 15.3063 120.501 15.4774C118.9 16.1202 117.656 16.0301 116.665 15.1995C116.121 14.7437 115.495 13.9368 115.275 13.4062C114.898 12.5019 114.939 12.3807 115.911 11.4761C116.574 10.859 116.878 10.3278 116.753 10.0037C116.646 9.72513 116.558 9.36449 116.558 9.2026C116.558 9.04071 115.61 8.90832 114.451 8.90832H112.344L112.508 9.95017C112.598 10.5233 112.764 12.5606 112.878 14.4779C113.049 17.3605 113.009 17.9205 112.649 17.715C111.561 17.0947 111.062 16.4036 110.879 15.2655C110.699 14.1445 110.594 14.0378 109.677 14.0419C107.975 14.0493 107.155 14.3853 107.319 15.0078C107.4 15.3165 107.357 15.7445 107.225 15.9586C106.893 16.4936 105.971 15.9705 104.692 14.5193C103.461 13.1222 103.393 12.4346 104.487 12.4346C105.336 12.4346 105.507 11.8223 105.089 10.2707C104.923 9.65332 104.68 9.5501 103.403 9.55427C100.914 9.5626 100.925 9.53022 101.66 14.4051C102.015 16.7594 102.261 18.7376 102.207 18.8008C102.154 18.8643 101.68 18.6107 101.154 18.2379C100.447 17.7365 100.142 17.205 99.9851 16.1994C99.5998 13.7326 99.5489 13.6566 98.4236 13.8816C96.1556 14.3352 96.1845 14.3077 96.3944 15.8345C96.5647 17.0707 96.5138 17.2431 95.9795 17.2431C95.3106 17.2431 93.8737 15.7166 93.5312 14.6427C93.1697 13.5079 94.2686 12.7619 96.8695 12.3775C99.1166 12.0454 99.1759 12.013 99.1759 11.1135C99.1759 10.5359 99.0072 10.1906 98.7249 10.1906C98.0113 10.1906 90.7056 11.4668 90.5536 11.6181C90.4783 11.6928 90.8054 13.5691 91.2805 15.7871C91.7553 18.0054 92.0965 19.9606 92.0385 20.1321C91.9806 20.3036 91.4974 20.1796 90.9644 19.8567C90.0792 19.3201 89.9331 18.9704 89.2709 15.7951C88.8721 13.8839 88.4945 12.2692 88.4317 12.2067C88.2705 12.0461 85.817 12.4583 85.3979 12.7164C85.1021 12.8981 86.0204 16.6773 87.4532 21.1727C87.6354 21.7446 87.5836 21.742 86.353 21.1169C85.1912 20.5264 85.0213 20.2815 84.6604 18.677C84.4403 17.6961 84.1657 16.8354 84.0505 16.7645C83.9352 16.6937 83.1994 16.8274 82.4149 17.062L80.9889 17.4884L81.8819 17.9016C83.0951 18.4629 83.3429 19.6182 82.4951 20.7601C81.8297 21.6564 81.8297 21.6641 82.4613 22.2334C82.9412 22.6659 82.9972 22.8669 82.6914 23.0551C82.4506 23.2035 82.0151 23.0506 81.617 22.6781C81.2487 22.3335 80.4964 22.0517 79.945 22.0517C78.8139 22.0517 77.8463 21.2737 78.0034 20.4902C78.0816 20.101 78.4753 19.968 79.5485 19.968C80.8013 19.968 81.0025 19.8731 81.0926 19.24C81.1743 18.6665 80.9548 18.4116 80.0567 18.0378C79.43 17.7772 78.566 17.5637 78.1366 17.5637C76.6749 17.5637 76.9328 16.7434 78.5268 16.3221C82.854 15.1777 83.4031 14.9562 83.4031 14.3542C83.4031 14.0246 83.2834 13.681 83.1369 13.5909C82.9908 13.5008 81.1805 13.8759 79.1146 14.424C75.4746 15.3902 75.3381 15.4031 74.713 14.8398C74.3586 14.5202 74.0682 14.1548 74.0682 14.0278C74.0682 13.7864 83.7196 11.0773 88.7144 9.91651C92.8887 8.94647 101.492 7.71099 106.901 7.30515C111.975 6.92431 122.339 6.86052 125.375 7.19167L127.272 7.39876L126.663 6.35306C125.91 5.06116 124.503 3.9802 122.915 3.47338C121.884 3.14447 121.708 2.95181 121.708 2.15135C121.708 1.07071 121.714 1.06878 123.087 1.66216ZM137.844 8.76919C138.982 9.35519 139.734 10.9237 139.734 12.7106C139.734 14.0749 140.07 14.358 141.692 14.358C142.274 14.358 142.631 14.1907 142.631 13.9172C142.631 13.6749 142.718 13.0466 142.823 12.5208C142.997 11.654 142.924 11.5472 142.032 11.3697C141.379 11.2395 140.883 10.8532 140.553 10.2172C140.28 9.69115 140.056 9.20068 140.056 9.12727C140.056 8.64577 156.205 12.6952 156.852 13.3389C156.973 13.4588 157.172 13.9634 157.295 14.4603C157.514 15.3418 157.493 15.3591 156.433 15.1639L155.346 14.9642L154.612 17.6262C154.208 19.0906 153.649 21.0618 153.37 22.0068L152.863 23.7254L152.256 22.8082C151.922 22.304 151.648 21.5667 151.647 21.1701C151.645 20.5315 151.482 20.4488 150.225 20.4488C149.039 20.4488 148.669 20.2885 147.983 19.4772C147.532 18.9428 147.013 17.9689 146.829 17.3133C146.55 16.3148 146.593 15.991 147.09 15.3197C148.106 13.949 150.764 14.0455 152.12 15.5024L152.862 16.3003L153.207 15.3146C153.468 14.5715 153.456 14.2974 153.162 14.2009C151.029 13.5024 145.942 12.114 145.516 12.114C145.09 12.114 144.854 12.718 144.419 14.919C144.115 16.4619 143.715 18.4385 143.53 19.3121L143.194 20.8999L142.409 19.9911C141.762 19.2425 141.66 18.8687 141.828 17.875C142.056 16.5331 141.987 16.452 140.369 16.1619C139.324 15.9746 139.203 16.0362 138.868 16.9213C138.418 18.1064 137.737 18.1487 136.866 17.0457C136.127 16.1099 135.474 14.0987 135.76 13.638C135.862 13.4736 136.436 13.4303 137.035 13.5425C137.874 13.6992 138.125 13.637 138.125 13.2722C138.125 13.0116 137.842 12.7087 137.495 12.5994C136.655 12.3336 135.228 10.6118 135.228 9.86362C135.228 9.53439 135.55 9.04071 135.943 8.76631C136.811 8.16075 136.662 8.16043 137.844 8.76919ZM108.398 9.14522C106.971 9.25614 106.852 9.3273 107.025 9.96908C107.129 10.3554 107.216 10.9962 107.219 11.3927C107.223 12.0547 107.372 12.114 109.034 12.114H110.844L110.643 11.1122C110.533 10.5612 110.442 9.83989 110.442 9.50939C110.442 9.17888 110.334 8.93429 110.201 8.96602C110.068 8.99776 109.257 9.07854 108.398 9.14522ZM118.189 9.76552C118.638 10.943 118.276 12.3032 117.311 13.0591C116.311 13.8422 116.58 14.358 117.988 14.358C118.828 14.358 119.308 14.0823 120.223 13.0748C121.196 12.0012 121.386 11.5562 121.386 10.3499V8.90832H119.624H117.862L118.189 9.76552ZM137.052 9.76328C136.597 10.2159 136.865 11.4649 137.488 11.797C138.273 12.2153 138.769 11.9675 138.769 11.1562C138.769 10.1794 137.592 9.22504 137.052 9.76328ZM148.706 16.4023C147.641 16.9309 147.562 17.7984 148.539 18.2417C149.36 18.6142 151.101 18.4363 151.966 17.891C153.159 17.1393 150.066 15.7268 148.706 16.4023ZM171.594 17.229C171.861 17.725 171.523 19.0787 169.98 23.6924C168.906 26.9019 167.885 29.7934 167.711 30.1175C167.305 30.8731 166.881 30.8661 166.468 30.0973C166.214 29.6245 166.581 28.1678 168.106 23.6058C169.187 20.3709 170.203 17.4714 170.365 17.163C170.749 16.4295 171.177 16.4523 171.594 17.229ZM61.0924 17.3233C61.441 17.8615 64.2354 24.5528 65.2577 27.2972C66.1255 29.6271 65.9929 30.4166 64.8367 29.8005C64.2267 29.4754 59.5831 18.5684 59.5831 17.4605C59.5831 16.828 60.7052 16.7257 61.0924 17.3233ZM56.8309 19.2573C57.7058 20.5873 62.163 31.0812 61.9789 31.378C61.7555 31.7377 61.1671 31.7448 60.6122 31.3941C60.0353 31.0296 55.0222 19.4499 55.2195 18.9377C55.4693 18.2895 56.3027 18.4546 56.8309 19.2573ZM176.214 19.2172C176.644 19.8965 171.658 32.4702 170.958 32.4702C170.245 32.4702 170.182 31.1466 170.816 29.4636C172.023 26.2537 174.874 19.0188 175.033 18.7626C175.261 18.3956 175.833 18.6158 176.214 19.2172ZM105.614 26.5438C104.286 26.6935 101.823 26.9676 100.142 27.1529C83.5448 28.9818 64.8779 36.1125 49.9263 46.3345C42.3486 51.5156 32.3603 60.5714 26.8556 67.252C18.6599 77.1987 12.326 87.8538 7.97724 99.0102C4.64694 107.553 2.47191 116.019 0.941315 126.397C0.352895 130.387 0.352895 151.259 0.941315 155.248C4.44318 178.991 12.9016 197.884 27.9922 215.671L30.5719 218.711L30.7933 221.064C31.3026 226.476 30.3565 234.416 28.6279 239.238C26.9654 243.876 22.8416 249.309 19.1128 251.774C15.2752 254.311 10.0525 255.708 4.29801 255.737L2.28618 255.747V281.874V308H114.949H227.611V282.053C227.611 267.067 227.489 256.03 227.322 255.928C227.163 255.83 225.171 255.598 222.896 255.412C218.348 255.04 215.75 254.351 212.427 252.636C206.178 249.409 201.136 241.847 199.646 233.468C199.139 230.612 198.843 223.835 199.105 221.054L199.334 218.616L201.781 215.784C207.108 209.616 212.844 201.231 216.656 194.037C219.739 188.221 223.774 178.246 225.215 172.88C228.927 159.054 229.715 152.526 229.455 137.777C229.298 128.944 229.088 126.408 228.054 120.947C225.562 107.779 221.505 96.3226 215.571 85.6919C209.607 75.0092 204.365 68.0958 195.758 59.5584C182.6 46.5073 168.455 37.8535 150.38 31.7948C144.328 29.7662 134.919 27.7373 127.502 26.8618C123.396 26.3771 108.952 26.1672 105.614 26.5438ZM113.64 33.7272C113.906 34.0461 113.991 35.708 113.923 39.2749C113.84 43.6866 113.902 44.4816 114.389 45.2222C115.063 46.2454 116.683 46.7519 117.931 46.3294C119.456 45.8133 119.777 44.9891 119.777 41.5834C119.777 39.8863 119.871 37.3913 119.986 36.0391C120.177 33.7829 120.259 33.5646 120.975 33.3854C121.404 33.278 122.125 33.3579 122.576 33.5627L123.397 33.9349L123.262 39.6141C123.109 46.0412 122.771 47.2478 120.743 48.6003C119.727 49.2774 119.324 49.3412 116.661 49.2456C113.36 49.1273 112.42 48.6859 111.247 46.7019C110.685 45.7511 110.59 44.9189 110.497 40.1113C110.375 33.8515 110.518 33.2716 112.185 33.2716C112.776 33.2716 113.431 33.4765 113.64 33.7272ZM103.725 35.3794C105.124 36.0965 106.482 38.487 106.904 40.9781C107.509 44.5534 106.664 47.5498 104.648 48.9795C103.496 49.7964 98.0885 50.9802 96.1562 50.8389L94.8403 50.7427L94.463 48.1781C93.5366 41.8757 93.0023 37.2034 93.1072 36.317C93.2341 35.2431 93.5238 35.1476 98.2102 34.6385C100.648 34.3737 102.159 34.5767 103.725 35.3794ZM136.913 35.3759C138.841 36.0305 140.608 37.7468 140.889 39.239C141.044 40.0629 140.979 40.4748 140.662 40.6749C139.648 41.3141 137.481 40.7557 137.481 39.8552C137.481 39.6099 137.099 39.1098 136.633 38.7447C135.509 37.8638 133.353 37.8519 132.244 38.7207C131.191 39.5455 130.399 41.8786 130.399 44.1569C130.399 46.1672 130.897 47.119 132.334 47.8595C133.85 48.6401 134.872 48.4634 136.054 47.2164C137.219 45.9851 137.932 45.8354 139.019 46.5936C139.916 47.2193 139.922 47.8172 139.042 49.0475C137.233 51.5774 132.427 51.9221 129.511 49.731C127.74 48.4 127.024 46.6509 127.039 43.6901C127.057 39.952 128.421 37.1906 130.88 35.9173C133.079 34.7789 134.719 34.6315 136.913 35.3759ZM87.2015 37.5032C87.4139 37.7147 87.5877 38.2805 87.5877 38.7604C87.5877 39.483 87.3798 39.7035 86.3806 40.0408C85.7169 40.2649 84.0872 40.8172 82.7593 41.2679L80.3451 42.0873L80.4375 43.2093C80.6001 45.1814 80.9912 45.2808 84.2796 44.1835C87.7928 43.0115 88.0773 42.9974 88.7144 43.9655C89.5432 45.2254 89.0327 45.687 85.5917 46.7875C83.8203 47.3543 82.2936 48.0178 82.1996 48.2624C81.9582 48.8891 82.7951 51.2575 83.3307 51.462C83.5757 51.5557 85.376 51.1101 87.3312 50.4718C89.2864 49.8335 91.022 49.3947 91.1881 49.4969C91.6375 49.7736 92.1003 51.1549 91.9098 51.6499C91.8184 51.8874 90.4825 52.4847 88.9413 52.9771C87.4001 53.4695 85.0725 54.2231 83.7688 54.6517C82.4648 55.0806 81.2069 55.3582 80.9735 55.2691C80.5589 55.1108 76.4268 42.8785 76.2497 41.2859C76.1647 40.5223 76.3968 40.4049 81.1499 38.8066C86.6552 36.9553 86.652 36.9559 87.2015 37.5032ZM97.1064 37.8635C96.5801 38.2469 96.5566 38.5033 96.8647 40.5082C97.0524 41.7292 97.2899 43.5731 97.3929 44.6054C97.6775 47.46 97.9585 47.8075 99.7636 47.5379C103.089 47.0414 103.868 45.9816 103.524 42.422C103.163 38.6838 102.114 37.439 99.3268 37.439C98.4262 37.439 97.427 37.6301 97.1064 37.8635ZM153.703 40.4495L154.774 40.8954L155.011 48.9773C155.17 54.3818 155.139 57.1675 154.919 57.3875C154.533 57.7712 153.356 57.5336 152.48 56.8954C152.046 56.5796 151.823 55.9311 151.719 54.6812L151.572 52.9133L149.113 51.9057C147.761 51.3514 146.502 50.8988 146.316 50.9004C146.129 50.9017 145.485 51.4079 144.885 52.025C143.636 53.3082 142.469 53.4778 141.312 52.5446L140.565 51.9423L141.653 50.7013C146.534 45.1314 151.506 40.0036 152.024 40.0036C152.358 40.0036 153.113 40.2043 153.703 40.4495ZM167.475 46.8157C172.061 49.3453 172.266 49.5008 172.177 50.3897C172.023 51.9346 171.241 52.1362 169.224 51.1514C167.898 50.5035 167.394 50.3881 167.162 50.6786C166.992 50.8901 165.732 53.0828 164.362 55.5512C162.991 58.0196 161.616 60.305 161.305 60.63C160.774 61.1865 160.682 61.1901 159.717 60.6932C159.154 60.4034 158.614 59.962 158.518 59.7126C158.422 59.4632 159.061 57.9921 159.939 56.4434C164.695 48.048 164.636 48.2801 162.301 47.2318C161.595 46.9148 160.94 46.4551 160.846 46.2108C160.569 45.4905 161.342 44.171 162.042 44.171C162.393 44.171 164.838 45.3613 167.475 46.8157ZM150.115 46.1707C149.363 46.9356 148.747 47.8063 148.747 48.1057C148.747 48.7401 150.963 49.7861 151.395 49.3559C151.55 49.202 151.633 48.1098 151.58 46.9282L151.483 44.7804L150.115 46.1707ZM65.6649 47.0962C66.0335 48.1493 66.4381 47.797 61.217 50.9693C60.1412 51.623 59.2618 52.3443 59.2628 52.5722C59.2638 52.8001 59.6053 53.4111 60.0221 53.9301L60.7802 54.8732L63.72 53.2088C65.3369 52.2933 66.8743 51.5441 67.1366 51.5441C67.3993 51.5441 67.8348 51.9695 68.1049 52.4895C68.5845 53.4137 68.5719 53.4528 67.5499 54.2074C66.9744 54.6322 65.7409 55.3849 64.8084 55.8805C63.8758 56.3757 62.9543 56.9714 62.7605 57.2038C62.2941 57.7635 62.6346 59.0131 63.5285 60.0232L64.2505 60.8387L67.7144 58.8832C69.6528 57.7888 71.3904 57.0089 71.6602 57.1121C71.9254 57.2134 72.3188 57.6817 72.5344 58.153C72.8846 58.9185 72.8467 59.0644 72.1781 59.5244C70.0832 60.9663 62.923 64.9112 62.615 64.7933C62.4196 64.7189 61.0226 62.5368 59.5103 59.9443C54.9916 52.1981 54.8731 51.958 55.2568 51.3412C55.4442 51.0395 57.11 49.9278 58.9586 48.8702C65.0762 45.3706 65.062 45.3744 65.6649 47.0962ZM176.88 52.8697C177.903 53.3339 178.142 53.966 177.636 54.8655C176.907 56.1597 169.986 65.896 169.523 66.2794C169.194 66.5513 168.89 66.5609 168.429 66.3147C167.429 65.7819 166.722 64.9635 166.888 64.532C167.31 63.4356 175.266 52.5058 175.641 52.5058C175.881 52.5058 176.439 52.6696 176.88 52.8697ZM124.284 54.6062C129.737 55.2204 131.593 55.5339 135.543 56.5078C144.772 58.7845 155.166 63.3042 162.656 68.2987C184.23 82.6836 197.887 104.597 201.262 130.244C201.805 134.375 201.809 147.602 201.268 151.241C200.501 156.403 200.179 158.143 199.405 161.339C194.669 180.88 183.284 197.982 166.612 210.598C161.708 214.309 152.769 219.239 146.39 221.749C142.865 223.137 134.656 225.461 131.204 226.049C124.14 227.251 122.623 227.377 115.11 227.377C105.285 227.377 99.1778 226.57 90.7944 224.167C69.1291 217.957 49.8133 202.634 39.0186 183.094C33.9282 173.879 30.7093 164.566 28.9514 153.966C28.297 150.02 28.2088 148.414 28.2227 140.663C28.2365 132.555 28.308 131.448 29.1098 126.878C30.7557 117.497 32.9426 110.747 37.0583 102.343C41.4731 93.3294 46.7779 86.1089 54.4782 78.6323C62.5799 70.7658 70.9034 65.1994 80.828 61.0109C81.9788 60.5252 83.21 59.9998 83.5641 59.8433C85.7501 58.8775 92.6875 56.8261 96.7617 55.941C100.264 55.1803 102.884 54.7908 106.901 54.4337C108.937 54.2529 111.182 54.0497 111.891 53.9824C113.829 53.7984 119.759 54.0968 124.284 54.6062ZM51.4385 54.83C51.6056 55.0505 52.5871 57.5388 53.62 60.3598C54.653 63.1808 55.7654 66.2083 56.0921 67.0873C56.4189 67.9663 56.686 68.9995 56.686 69.3829C56.686 70.2712 54.8535 71.8407 54.0581 71.6333C53.2485 71.4227 40.6275 64.0434 40.3719 63.6315C40.1208 63.227 42.018 61.4818 42.7085 61.4818C42.9824 61.4818 45.1262 62.6358 47.4731 64.0463C49.8201 65.4568 51.9014 66.6109 52.0984 66.6109C52.5574 66.6109 52.3456 65.9278 50.2768 60.739C48.5302 56.3575 48.5116 55.9651 50.0003 54.9264C50.863 54.3247 51.0465 54.3125 51.4385 54.83ZM185.662 59.7847C187.804 60.7608 189.886 63.4305 190.418 65.8842C190.806 67.6758 189.837 70.1776 187.967 72.2157C185.812 74.5636 184.411 75.2663 181.883 75.2663C179.391 75.2663 178.179 74.6963 176.203 72.5953C173.148 69.3476 173.243 65.8172 176.479 62.2909C177.389 61.2994 178.583 60.2534 179.133 59.9661C181.137 58.9185 183.609 58.8499 185.662 59.7847ZM180.363 63.3917C178.85 64.4829 177.396 66.7503 177.396 68.0176C177.396 70.1628 179.283 72.0606 181.417 72.0606C183.201 72.0606 185.288 70.5023 186.519 68.2496C187.322 66.7795 187.381 66.4798 187.056 65.4995C186.856 64.8942 186.188 63.9588 185.573 63.4212C184.035 62.0764 182.2 62.0659 180.363 63.3917ZM43.5776 71.1255C46.5384 73.9612 48.9606 76.4646 48.9606 76.6886C48.9606 77.1968 47.5031 78.7925 47.0386 78.7925C46.85 78.7925 44.3083 76.5258 41.3903 73.7554C37.6506 70.2051 36.0849 68.509 36.0849 68.0086C36.0849 67.3889 37.4098 65.9698 37.9879 65.9698C38.1019 65.9698 40.6172 68.2897 43.5776 71.1255ZM106.418 67.1411C100.421 68.116 96.0867 70.4962 91.9732 75.0733L89.7831 77.5103H87.6557H85.5283L83.9429 79.192C82.4571 80.7679 82.216 80.8974 80.1095 81.251C76.0241 81.9364 73.0314 84.7064 72.9687 87.8602L72.9416 89.2111L77.9403 89.2191C82.8385 89.2271 82.9699 89.2454 84.4915 90.1334C86.4476 91.2752 87.6798 93.6404 87.5253 95.9575L87.4268 97.4385L83.2422 99.704C72.1546 105.707 63.6524 112.632 56.7636 121.268C55.0759 123.384 52.542 126.287 51.1327 127.72C47.9441 130.963 47.9582 131.332 51.3088 132.341C53.8022 133.091 58.6457 135.527 61.5144 137.473C62.4882 138.134 64.9024 139.951 66.8794 141.511C73.5593 146.784 77.0593 148.367 84.4944 149.478C86.0855 149.716 87.4822 150.096 87.6402 150.333C87.797 150.568 87.8852 153.862 87.8369 157.653L87.7487 164.545L86.6572 166.055C85.6451 167.455 83.5019 169.193 82.788 169.193C82.4027 169.193 82.01 170.367 82.2601 170.77C82.3628 170.935 82.9876 171.243 83.6491 171.454C87.0093 172.526 88.2141 174.574 88.2244 179.232C88.2318 182.533 87.9309 183.622 87.0132 183.614C85.9142 183.604 80.7169 181.047 77.6116 178.988C74.1236 176.676 70.4457 173.304 69.1362 171.22C68.0604 169.507 67.4974 167.275 67.7723 165.816C68.0749 164.209 68.7068 164.12 70.2087 165.471C71.3376 166.487 71.6991 166.629 73.164 166.629C75.9243 166.629 77.8334 164.854 78.4193 161.744C78.9581 158.883 76.3357 155.197 73.1582 154.351C71.8842 154.012 71.6647 153.806 71.0151 152.344C70.6172 151.447 69.8904 150.4 69.4005 150.016C68.4316 149.257 66.7152 149.097 65.6475 149.666C65.1228 149.946 64.8579 149.887 64.3007 149.367C63.919 149.011 63.178 148.558 62.6536 148.36C61.3178 147.856 59.1044 148.711 58.4413 149.988C57.9862 150.865 57.8371 150.921 55.9534 150.928C52.3846 150.942 49.3858 153.332 48.2653 157.056C47.7616 158.731 48.2113 159.167 50.731 159.445C53.9918 159.804 55.8478 161.402 56.8161 164.683C57.5255 167.087 57.455 168.751 56.5634 170.659C55.6093 172.699 53.8202 174.19 51.5358 174.848C47.5739 175.989 47.5327 176.129 50.3084 179.008C53.1105 181.914 55.6692 183.139 58.9325 183.136C60.8327 183.134 61.687 182.969 62.904 182.369L64.4546 181.605L66.7668 183.899C68.0386 185.161 69.7307 186.633 70.5274 187.169C74.0399 189.532 80.041 192.016 86.1392 193.632L87.7487 194.058L87.8443 198.375C87.9569 203.455 87.7909 204.646 86.904 205.118C86.3378 205.42 86.0768 205.283 84.9981 204.12C83.7691 202.794 83.7192 202.774 81.9633 202.919C80.5969 203.032 79.8955 203.293 78.9739 204.032C75.5338 206.788 75.1504 210.409 77.9895 213.331C79.6817 215.072 81.8191 215.793 85.3345 215.81C88.7369 215.826 90.3518 215.303 92.6939 213.429L93.9538 212.42L95.4493 212.926C97.3591 213.572 98.0679 213.555 99.6816 212.825C101.273 212.105 102.804 210.323 103.72 208.121L104.402 206.481L107.664 206.634C110.686 206.775 111.003 206.854 111.983 207.706C114.837 210.185 119.523 211.559 125.249 211.596C128.639 211.617 129.628 211.504 131.526 210.879C134.67 209.843 137.145 208.555 139.211 206.879L140.977 205.447L143.977 205.508C146.548 205.561 147.197 205.463 148.515 204.82C149.361 204.407 150.447 203.554 150.929 202.924C151.719 201.891 151.805 201.519 151.805 199.134C151.805 196.943 151.689 196.333 151.127 195.583C150.221 194.376 149.822 194.44 148.788 195.961C148.039 197.062 147.73 197.257 146.592 197.34C144.803 197.471 144.241 196.673 144.241 194.005C144.241 191.711 144.284 191.66 147.329 190.391C157.167 186.29 163.538 180.251 167.998 170.796C169.639 167.318 173.11 163.302 176.369 161.112C179.006 159.34 179.283 158.537 177.557 157.671C172.935 155.353 170.035 152.59 166.268 146.916C162.318 140.967 157.49 136.484 153.093 134.683C152.297 134.357 151.646 133.998 151.646 133.884C151.644 133.564 156.64 133.198 157.49 133.456C158.546 133.775 159.647 134.844 160.373 136.255C161.102 137.67 161.957 137.816 162.72 136.655C163.522 135.437 165.043 135.564 166.546 136.976C167.203 137.593 168.009 138.098 168.338 138.098C168.706 138.098 169.394 137.41 170.133 136.302C171.464 134.305 171.641 134.267 174.499 135.364C175.906 135.903 175.999 135.899 177.783 135.228C180.017 134.387 182.577 132.166 183.5 130.269C184.065 129.105 184.165 128.39 184.088 126.067C184.006 123.606 183.91 123.212 183.296 122.806C182.651 122.381 182.5 122.433 181.327 123.488C179.618 125.026 178.12 125.596 175.786 125.596C173.484 125.596 171.837 124.983 170.391 123.59C168.12 121.401 168.173 116.971 170.489 115.46C171.305 114.927 171.453 114.924 172.809 115.409C175.166 116.254 175.594 115.732 175.55 112.062C175.518 109.414 174.629 107.62 172.667 106.249C170.929 105.033 167.385 104.701 164.875 105.519C162.614 106.255 162.36 106.207 160.355 104.653C157.596 102.514 154.998 100.847 151.538 98.9955C149.797 98.0642 148.297 97.1041 148.204 96.8624C147.963 96.2383 148.337 94.9547 148.932 94.3626C149.697 93.6006 151.004 93.758 152.586 94.8034C153.698 95.5382 154.143 95.6744 154.614 95.4237C156.08 94.6422 156.28 91.0396 154.999 88.4795C153.842 86.1666 152.078 84.8465 149.814 84.5984L148.029 84.4025L147.43 82.0537C146.248 77.408 142.907 73.5336 138.006 71.1239C133.984 69.1466 131.782 68.7475 126.111 68.9671C122.484 69.1075 121.017 69.0447 119.995 68.7058C116.668 67.6015 114.533 67.2181 111.086 67.1052C109.05 67.0385 106.95 67.0546 106.418 67.1411ZM116.644 69.9753C123.274 71.7798 129.02 76.6002 131.421 82.3733C132.113 84.0352 132.133 84.4317 132.151 96.8942L132.17 109.707L129.656 110.625C128.273 111.131 126.933 111.465 126.678 111.367C126.289 111.219 126.214 109.568 126.21 101.002C126.206 91.9119 126.136 90.5418 125.566 88.2885C124.585 84.4102 123.178 81.8306 120.712 79.3872C117.375 76.0808 113.881 74.6447 109.155 74.6367C104.593 74.6293 101.402 76.0106 99.0304 79.0198C96.6983 81.979 96.2788 83.5065 96.2788 89.0402C96.2788 92.4508 96.1659 93.8693 95.8765 94.0962C95.3009 94.547 90.4043 96.1299 90.2034 95.9302C90.1114 95.8382 89.7982 94.8537 89.5078 93.7426C88.7408 90.8059 87.3518 88.969 85.094 87.9051C83.4855 87.1476 82.777 87.0209 79.7014 86.9437C77.7539 86.8943 76.0517 86.8437 75.9191 86.8305C75.3124 86.7709 75.7833 85.805 76.8433 84.935C78.1775 83.8396 80.0667 83.2805 82.4339 83.2805C83.9384 83.2805 84.1232 83.1969 84.6254 82.2874C85.9596 79.8703 86.146 79.7543 88.6986 79.7543H91.0503L92.4377 77.9632C96.0464 73.305 101.104 70.199 106.418 69.3774C108.267 69.0915 114.8 69.4736 116.644 69.9753ZM197.179 71.3361C197.629 71.8192 197.997 72.5812 197.997 73.0297C197.997 73.7115 196.509 78.2533 195.131 81.7787C194.683 82.9244 194.686 82.96 195.233 82.96C195.484 82.96 197.026 81.878 198.662 80.5557C200.297 79.2333 201.855 78.1514 202.125 78.1514C202.865 78.1514 203.793 79.1272 203.774 79.8841C203.752 80.7246 192.83 89.6826 191.817 89.6903C191.693 89.6913 191.209 89.1912 190.74 88.5792L189.888 87.4668L190.579 85.2934C190.959 84.0983 191.614 82.1826 192.033 81.0365C193.218 77.8001 193.276 77.5103 192.737 77.5103C192.476 77.5103 190.932 78.5922 189.306 79.9145C187.68 81.2369 186.21 82.3188 186.042 82.3188C185.688 82.3188 184.156 80.7435 184.156 80.3803C184.156 79.9149 195.702 70.4782 196.294 70.46C196.331 70.4587 196.729 70.853 197.179 71.3361ZM133.297 71.6948C140.26 73.6782 145.016 78.5524 145.445 84.1448C145.671 87.0761 145.952 87.5691 147.247 87.3046C150.783 86.5827 151.357 86.7792 152.78 89.1973C153.76 90.8626 153.756 92.1414 152.771 92.0112C148.628 91.4643 148.856 91.431 147.502 92.7806C146.787 93.4923 146.089 94.5851 145.887 95.3093C145.677 96.0636 145.533 99.4642 145.535 103.637C145.539 111.938 145.854 113.848 147.501 115.54C148.396 116.46 148.498 116.699 148.1 116.949C146.561 117.918 142.965 116.749 141.763 114.889C140.365 112.726 140.134 110.715 139.935 98.9458C139.822 92.2898 139.608 87.4755 139.401 86.9244C138.751 85.1995 137.354 83.5434 135.345 82.1156C133.869 81.067 132.862 79.9767 131.541 77.9991C130.552 76.5194 128.863 74.5152 127.786 73.5451C126.71 72.5751 125.925 71.6278 126.041 71.4403C126.389 70.879 131.002 71.0405 133.297 71.6948ZM34.9374 73.6554C35.9806 74.0504 35.9813 74.6383 34.9396 75.8712C34.2614 76.6736 33.9501 76.8127 33.176 76.6585C31.881 76.4005 29.8717 78.3184 30.0272 79.6642C30.1907 81.0837 31.2768 80.9859 33.5973 79.3423C37.4095 76.6422 38.9671 76.269 40.9165 77.5904C42.6145 78.7413 43.201 79.7578 43.2152 81.5748C43.2296 83.4286 42.665 84.6904 40.9999 86.526C39.5375 88.1378 38.3996 88.7302 36.7657 88.7302C34.0547 88.7302 32.951 87.705 34.0641 86.2208C34.6164 85.4841 34.9422 85.3636 36.391 85.3607C37.8833 85.3575 38.182 85.2382 39.0116 84.3137C40.1498 83.0452 40.3065 81.2504 39.3251 80.7272C38.3948 80.2313 38.2973 80.2659 35.7305 81.9989C32.9423 83.881 31.6145 84.3804 30.1334 84.1038C28.9222 83.8774 27.2058 82.1598 26.8733 80.8413C26.4175 79.0327 28.2983 75.6083 30.5934 74.0677C31.7493 73.2922 33.531 73.123 34.9374 73.6554ZM110.442 77.5263C110.442 77.8876 110.206 78.6367 109.919 79.1913C109.124 80.7214 108.189 84.2406 108.189 85.6999C108.189 87.3043 107.752 87.7685 106.244 87.7685C104.531 87.7685 102.36 88.5029 100.688 89.648C99.8811 90.2013 99.0529 90.6536 98.8479 90.6536C98.5817 90.6536 98.5063 89.6605 98.5842 87.178C98.6892 83.8281 98.7355 83.6338 99.8621 81.8085C101.162 79.703 103.53 77.7039 105.275 77.2397C105.904 77.0724 107.324 76.9204 108.43 76.9021C110.254 76.8723 110.442 76.9304 110.442 77.5263ZM115.847 78.4377C116.504 78.7717 117.693 79.626 118.49 80.3361C119.754 81.4629 119.887 81.702 119.541 82.2133C117.263 85.5739 117.386 85.0071 117.118 93.3785C116.982 97.61 116.91 111.222 116.956 123.628L117.041 146.184L118.553 147.548C119.51 148.41 120.752 149.133 121.933 149.515C123.549 150.038 123.801 150.227 123.801 150.921C123.801 151.694 123.711 151.728 121.279 151.882C118.928 152.032 118.693 152.114 117.818 153.09C116.724 154.31 116.827 152.249 116.879 172.024C116.906 182.262 116.816 186.034 116.537 186.369C116.265 186.696 115.4 186.825 113.48 186.825C112.007 186.825 110.737 186.717 110.657 186.584C110.578 186.452 110.413 167.158 110.292 143.708C110.171 120.258 109.941 99.9181 109.781 98.5076C109.36 94.7861 108.223 92.7018 105.95 91.4836C104.302 90.6007 104.251 90.5353 104.979 90.267C105.402 90.1112 106.607 90.0147 107.657 90.0522C110.115 90.1407 110.442 89.74 110.442 86.6414C110.442 82.8763 112.49 77.8308 114.018 77.8308C114.367 77.8308 115.19 78.104 115.847 78.4377ZM122.598 86.2416C122.999 87.2485 123.415 88.7052 123.522 89.4791C123.699 90.7678 123.651 90.9008 122.953 91.0643C122.534 91.1627 121.612 91.1422 120.904 91.0191L119.616 90.7953L119.63 88.3648C119.641 86.5981 119.8 85.6979 120.214 85.0687C121.053 83.7925 121.761 84.1409 122.598 86.2416ZM136.523 86.3888C137.376 87.7288 137.481 88.1699 137.481 90.4058C137.481 93.2083 137.202 93.5798 135.65 92.8412C134.759 92.4174 134.742 92.3559 134.552 88.8873C134.445 86.9498 134.418 85.2562 134.49 85.1238C134.829 84.5061 135.649 85.0164 136.523 86.3888ZM25.7225 87.9131C26.0686 88.2388 26.0457 88.5138 25.5951 89.4553C25.1509 90.3831 24.781 90.6677 23.6518 90.9508C22.6214 91.2092 22.1293 91.5471 21.7675 92.2433C21.0776 93.5718 21.1381 94.7335 21.9094 94.9775C22.7898 95.2557 23.4133 94.8483 25.5674 92.5873C26.5987 91.5048 27.83 90.4693 28.3035 90.2856C30.5187 89.4275 33.343 90.3853 34.3573 92.3389C35.1862 93.9353 34.8282 96.614 33.4921 98.8121C31.9055 101.422 30.4878 102.138 27.3133 101.931C26.5572 101.882 26.4281 101.733 26.4281 100.912C26.4281 99.695 27.4395 98.6679 28.6379 98.6679C30.6224 98.6679 32.339 96.1306 31.5382 94.3806C30.8796 92.9409 29.7459 93.2551 27.5448 95.4872C24.4099 98.6666 22.3877 99.3488 20.2838 97.937C18.7285 96.8932 18.3229 95.9501 18.4954 93.7792C18.7297 90.8274 20.3843 88.442 22.7856 87.5944C24.0693 87.1412 25.0112 87.2434 25.7225 87.9131ZM210.503 93.1938C212.016 93.9626 213.243 95.717 213.922 98.0809C214.4 99.7437 214.401 100.001 213.933 101.114C212.847 103.703 211.532 104.203 210.651 102.363C210.147 101.31 210.152 101.188 210.733 100.113C211.347 98.9763 211.347 98.9753 210.587 97.5484C209.847 96.1594 208.96 95.5356 208.3 95.9411C207.903 96.1854 207.898 99.5812 208.291 101.553C208.689 103.544 208.145 105.214 206.719 106.385C204.48 108.223 202.077 107.915 199.96 105.52C198.002 103.305 197.129 100.006 198.036 98.246C198.658 97.0362 200.305 95.5029 200.784 95.6863C201.035 95.7821 201.459 96.2828 201.727 96.799C202.177 97.6658 202.164 97.8193 201.554 98.8016C200.77 100.065 200.715 101.241 201.38 102.521C202.242 104.181 204.228 104.701 204.725 103.396C204.881 102.987 204.861 101.274 204.678 99.4401C204.293 95.5734 204.717 94.2357 206.651 93.2179C208.14 92.4341 208.997 92.4286 210.503 93.1938ZM123.702 93.7372C123.845 93.825 123.962 95.4577 123.962 97.3654C123.962 101.538 123.831 101.731 121.228 101.407L119.455 101.186V97.3891C119.455 94.6601 119.568 93.5423 119.857 93.4147C120.291 93.2236 123.274 93.4737 123.702 93.7372ZM106.168 94.7589C106.745 95.124 107.42 97.2654 107.673 99.5309C107.938 101.902 107.924 101.914 104.153 102.632C90.7745 105.18 81.1129 110.564 76.1158 118.258L74.6245 120.553L72.1913 120.348C68.8517 120.067 62.802 118.6 62.802 118.072C62.802 117.178 69.5898 111.135 74.3901 107.754C81.7631 102.562 91.8184 97.4923 96.9226 96.3947C97.5423 96.2617 98.9184 95.9097 99.9806 95.6125C103.311 94.6813 105.555 94.3716 106.168 94.7589ZM136.617 95.4939C137.353 95.8273 137.405 96.0431 137.614 99.5946C137.735 101.657 137.739 103.59 137.623 103.891C137.36 104.574 136.243 104.597 135.3 103.939C134.626 103.469 134.584 103.208 134.584 99.5046C134.584 97.3401 134.681 95.4728 134.799 95.3554C135.11 95.0451 135.733 95.0926 136.617 95.4939ZM152.29 101.944C153.908 102.864 156.489 104.594 158.025 105.788C161.915 108.812 161.975 108.837 163.856 108.163C168.951 106.338 173.211 107.772 173.211 111.31V112.684L171.561 112.878C169.542 113.116 168.646 113.673 167.497 115.402C166.711 116.585 166.614 117.022 166.627 119.321C166.643 122.251 167.234 123.737 169.086 125.508C171.237 127.565 176.196 128.456 179.166 127.319C181.692 126.352 181.902 126.365 181.902 127.498C181.902 128.924 181.197 130.122 179.462 131.642C177.624 133.254 176.231 133.574 174.206 132.852C171.869 132.018 170.912 132.157 169.32 133.564L167.921 134.8L166.462 134.022C165.233 133.367 164.735 133.277 163.303 133.451C161.727 133.644 161.522 133.588 160.491 132.686C158.964 131.352 157.172 130.928 154.116 131.178L151.599 131.385L150.495 130.285C149.576 129.37 149.391 128.953 149.392 127.792C149.395 124.475 153.244 121.739 155.185 123.672C155.539 124.025 155.829 124.737 155.829 125.254C155.829 126.54 156.316 127.711 156.951 127.954C158.201 128.432 160.674 124.107 160.643 121.496C160.596 117.527 157.837 114.572 150.352 110.474C149.301 109.898 148.365 109.231 148.272 108.99C147.997 108.276 147.67 101.343 147.885 100.785C148.215 99.93 149.207 100.191 152.29 101.944ZM16.6368 101.232C17.3775 101.232 17.1814 103.062 16.126 105.997C15.5958 107.472 15.1619 108.877 15.1619 109.119C15.1619 109.361 15.7023 109.784 16.3625 110.058C17.8568 110.68 18.0119 110.512 19.1855 107.003C20.2632 103.78 20.5745 103.369 21.7188 103.655C22.2129 103.778 22.7022 104.1 22.8062 104.369C22.9098 104.638 22.5197 106.204 21.939 107.849C21.3586 109.494 20.9646 111.051 21.0638 111.308C21.2762 111.86 23.5971 112.619 24.2772 112.359C24.5373 112.259 25.2194 110.761 25.793 109.029C26.3667 107.298 26.9853 105.693 27.1682 105.464C27.3507 105.234 27.9468 105.09 28.4931 105.143C29.2817 105.22 29.5048 105.405 29.5772 106.041C29.6535 106.714 26.8434 115.371 26.2247 116.368C26.1114 116.55 25.5214 116.602 24.8586 116.487C23.2469 116.209 11.9597 112.277 11.5222 111.841C11.2634 111.583 11.5847 110.251 12.7094 106.921C14.4251 101.841 14.9694 100.77 15.6949 101.047C15.9618 101.149 16.3857 101.232 16.6368 101.232ZM123.459 104.304C123.911 104.754 123.958 106.501 123.884 119.932L123.801 135.053L121.748 135.326C120.141 135.541 119.635 135.506 119.419 135.166C119.106 134.674 119.033 106.849 119.34 104.999L119.539 103.797H121.245C122.37 103.797 123.123 103.969 123.459 104.304ZM107.664 104.691C107.905 105.079 108.001 137.109 107.762 137.347C107.647 137.462 105.722 137.777 103.485 138.048C99.567 138.521 99.4002 138.517 98.9744 137.937C98.6138 137.446 98.5331 134.518 98.5369 122.088C98.5398 113.703 98.656 106.663 98.7957 106.445C98.9351 106.226 99.9832 105.835 101.125 105.575C102.266 105.316 103.779 104.969 104.487 104.804C106.147 104.418 107.465 104.371 107.664 104.691ZM136.913 107.083C137.229 107.326 137.636 108.584 137.95 110.284C138.599 113.808 139.449 115.807 140.955 117.351C142.279 118.708 144.44 119.505 146.794 119.505C148.687 119.504 151.97 117.983 152.962 116.648C153.366 116.103 153.965 115.658 154.292 115.658C154.619 115.658 155.529 116.316 156.314 117.12C157.677 118.516 158.398 120.092 158.402 121.679C158.405 122.67 157.515 122.962 156.948 122.156C155.805 120.532 152.598 120.394 150.354 121.873C146.714 124.272 146.061 129.019 148.946 132.117C149.517 132.73 149.683 133.127 149.461 133.348C148.936 133.871 147.955 133.371 146.873 132.029C144.399 128.964 139.064 129.201 137.132 132.462C136.35 133.781 135.733 134.067 135.076 133.413C134.596 132.935 134.597 132.394 135.081 129.326C135.304 127.913 137.242 125.537 139.45 123.969C141.972 122.178 142.631 121.551 142.631 120.945C142.631 120.68 141.653 119.836 140.459 119.071C138.122 117.575 135.725 115.196 135.219 113.873C134.823 112.834 134.429 107.867 134.69 107.191C134.924 106.583 136.184 106.522 136.913 107.083ZM96.2016 122.791L96.1179 138.258L93.2482 138.352C91.1759 138.419 90.3 138.33 90.0969 138.031C89.9421 137.803 89.9086 135.936 90.0229 133.882C90.3093 128.723 90.1181 127.873 88.2022 125.785C87.3331 124.838 86.6221 123.927 86.6221 123.76C86.6221 123.593 87.2192 122.831 87.9489 122.067C89.9466 119.976 90.1629 119.198 90.1629 114.105C90.1629 110.714 90.2688 109.558 90.6052 109.28C91.2988 108.707 94.7518 107.352 95.5578 107.337L96.285 107.323L96.2016 122.791ZM214.423 108.958C217.659 109.649 219.877 112.734 219.882 116.552C219.889 121.128 216.479 124.096 211.17 124.135C208.999 124.151 208.557 124.046 207.151 123.181C204.923 121.81 203.706 119.413 203.678 116.341C203.66 114.418 203.785 113.917 204.61 112.6C205.755 110.769 208.016 109.391 210.564 108.971C211.53 108.811 212.423 108.664 212.547 108.643C212.671 108.623 213.515 108.764 214.423 108.958ZM87.7487 115.3V119.259L86.407 120.444C85.6693 121.096 84.4721 121.824 83.7469 122.062C81.4438 122.819 81.1956 123.963 83.1572 124.78C84.5848 125.374 86.6517 127.048 87.3911 128.209C87.9344 129.062 87.9817 129.626 87.8333 133.495C87.7355 136.046 87.5192 137.974 87.3064 138.186C86.7412 138.749 81.0536 137.527 78.745 136.346C77.6387 135.78 76.5223 134.919 76.1139 134.315C74.5157 131.953 74.911 125.548 76.9118 121.386C77.4517 120.263 78.6832 118.393 79.6489 117.23C81.5925 114.889 86.409 111.082 87.2263 111.24C87.6747 111.327 87.7487 111.903 87.7487 115.3ZM209.665 112.819C206.49 114.098 205.641 117.095 207.79 119.43C208.843 120.572 208.986 120.627 210.929 120.621C213.736 120.612 215.997 119.506 216.622 117.836C217.203 116.278 216.876 114.62 215.738 113.351C214.544 112.02 212.166 111.812 209.665 112.819ZM132.773 113.454C132.884 114.005 132.975 114.639 132.975 114.864C132.975 115.346 127.019 117.718 126.543 117.425C126.083 117.142 126.133 115.248 126.617 114.603C127.118 113.936 130.588 112.484 131.727 112.466C132.42 112.455 132.608 112.632 132.773 113.454ZM150.697 113.265C152.09 114.141 152.115 114.696 150.761 114.696C149.858 114.696 148.425 113.581 148.425 112.877C148.425 112.225 149.272 112.369 150.697 113.265ZM15.7471 118.232C16.3967 118.627 17.0649 119.443 17.4522 120.315C17.8024 121.104 18.1687 121.749 18.2656 121.749C18.3628 121.749 18.827 121.488 19.2969 121.169C20.4406 120.394 24.1855 118.862 24.9358 118.863C25.4679 118.864 25.5104 119.036 25.3131 120.386C25.1908 121.224 24.9207 122.076 24.7134 122.279C24.5058 122.482 23.177 123.122 21.7607 123.702C19.0227 124.821 17.4151 126.097 17.4151 127.151C17.4151 127.653 17.7959 127.904 19.1546 128.298C20.1113 128.575 21.2074 128.801 21.5901 128.801C23.3805 128.801 24.0632 130.147 23.0232 131.625C22.5976 132.23 22.323 132.315 21.3332 132.149C19.2737 131.802 12.159 130.416 10.7314 130.083C9.9762 129.907 9.07619 129.763 8.73079 129.763C7.54816 129.763 7.45353 128.838 8.23862 124.95C9.27512 119.817 9.85839 118.537 11.4601 117.884C12.6428 117.402 14.6481 117.565 15.7471 118.232ZM136.859 119.256C137.909 120.177 138.767 121.078 138.766 121.259C138.764 121.441 137.875 122.294 136.79 123.156L134.816 124.723L133.171 124.358C129.691 123.585 126.804 122.566 126.501 122.003C125.862 120.814 126.491 120.354 132.009 117.972C133.785 117.206 134.839 117.485 136.859 119.256ZM62.9639 120.822C65.3041 121.525 66.3998 121.753 70.6385 122.42C72.1704 122.661 73.2304 122.99 73.3327 123.255C73.6153 123.989 72.8026 130.52 72.3757 130.944C71.8263 131.489 67.0577 134.028 64.9387 134.902C62.9678 135.716 63.581 135.888 58.4194 133.068C56.8058 132.187 54.8146 131.191 53.9947 130.855C53.1748 130.519 52.5034 130.089 52.5027 129.899C52.5021 129.71 52.8777 129.205 53.3377 128.777C53.7974 128.35 55.1992 126.702 56.4527 125.115C58.2302 122.864 60.5504 120.146 60.6933 120.146C60.7036 120.146 61.7253 120.45 62.9639 120.822ZM12.1477 121.829C11.5696 122.747 10.8572 125.784 11.0829 126.369C11.3359 127.026 13.8341 127.377 14.3768 126.832C14.6147 126.593 14.906 125.451 15.0238 124.294C15.2012 122.555 15.1442 122.098 14.6942 121.65C13.9226 120.881 12.6898 120.968 12.1477 121.829ZM61.5112 123.111C59.961 124.162 59.2123 125.329 59.0249 126.986C58.7059 129.803 61.4175 132.648 64.4208 132.648C65.596 132.648 67.5219 131.716 68.496 130.676C70.0021 129.068 70.0214 126.03 68.5372 124.152C67.0816 122.309 63.4815 121.776 61.5112 123.111ZM66.0386 124.964C66.9383 125.444 67.6803 127.049 67.4411 127.998C67.1685 129.08 65.53 130.405 64.4672 130.403C63.1191 130.401 61.6078 129.314 61.3538 128.163C61.0789 126.916 61.6451 125.467 62.5834 125.015C63.5002 124.574 65.2574 124.548 66.0386 124.964ZM129.563 125.756C130.957 126.197 132.287 126.557 132.518 126.557C133.19 126.557 133.294 127.013 132.907 128.268C132.469 129.688 131.984 129.746 128.929 128.747C126.655 128.004 125.983 127.202 126.364 125.688C126.592 124.785 126.484 124.783 129.563 125.756ZM218.893 127.826C222.451 129.634 223.738 134.237 221.706 137.889C221.073 139.026 219.773 140.021 218.92 140.021C218.445 140.021 217.591 137.936 217.821 137.339C217.922 137.079 218.202 136.789 218.445 136.697C218.688 136.604 219.117 136.084 219.399 135.541C220.086 134.218 219.758 132.633 218.563 131.492C217.772 130.738 217.3 130.579 215.615 130.496C212.658 130.352 210.567 131.164 209.785 132.76C209.262 133.827 209.232 134.167 209.567 135.278C209.88 136.32 210.192 136.662 211.217 137.09C212.682 137.701 213.019 138.409 212.472 139.725C211.864 141.187 210.19 140.953 208.226 139.129C206.209 137.256 205.808 132.882 207.43 130.441C208.415 128.959 210.738 127.489 212.625 127.153C214.598 126.803 217.489 127.113 218.893 127.826ZM130.158 131.37C131.988 131.928 132.33 132.145 132.326 132.741C132.317 133.979 131.925 134.18 129.273 134.297L126.698 134.411L126.598 132.849C126.474 130.907 126.687 130.308 127.42 130.533C127.731 130.629 128.963 131.005 130.158 131.37ZM144.535 132.897C145.785 133.823 145.87 135.86 144.697 136.779C144.221 137.152 143.572 137.457 143.255 137.457C142.937 137.457 142.45 137.683 142.171 137.96C141.741 138.389 141.666 139.551 141.668 145.734C141.669 149.979 141.815 153.538 142.02 154.287C142.543 156.196 143.445 157.012 145.037 157.012C146.737 157.012 147.138 157.438 147.138 159.248C147.138 161.034 146.549 161.936 144.804 162.823C143.592 163.439 143.331 163.462 141.787 163.093C140.323 162.743 139.949 162.76 138.982 163.217C136.819 164.239 136.28 163.843 137.018 161.774C137.895 159.315 137.015 157.285 134.521 156.018L133.231 155.362L133.449 153.863C133.701 152.14 134.38 150.921 135.087 150.921C136.18 150.921 137.992 149.668 138.533 148.537C139.009 147.542 139.091 146.347 139.091 140.326V133.28L140.137 132.627C141.391 131.844 143.268 131.959 144.535 132.897ZM73.915 135.037C76.495 139.102 81.7757 140.663 92.9495 140.663C96.3674 140.663 100.988 140.501 103.219 140.303C106.272 140.032 107.365 140.035 107.645 140.313C107.849 140.517 108.07 141.745 108.136 143.044C108.323 146.728 108.197 146.792 99.6587 147.393C86.924 148.288 79.2514 147.131 73.3198 143.422C70.043 141.373 66.0209 138.106 66.0216 137.494C66.0222 137.165 67.1649 136.38 69.16 135.339C70.886 134.438 72.4578 133.68 72.6535 133.656C72.8492 133.631 73.4167 134.252 73.915 135.037ZM21.4494 136.641C23.0383 138.715 23.6512 142.43 22.868 145.239C22.042 148.201 18.797 150.276 15.0009 150.269C10.4716 150.262 7.57391 147.939 6.95363 143.819C6.45405 140.502 8.13304 136.896 10.4462 136.318C11.5232 136.049 11.6001 136.118 11.8364 137.569C11.9958 138.547 11.8715 138.896 11.0182 139.864C10.2086 140.782 10.0116 141.289 10.0116 142.453C10.0116 145.491 11.4962 146.754 15.0653 146.752C17.617 146.751 19.0108 146.086 19.8496 144.471C20.8768 142.492 19.8602 139.06 18.2469 139.06C17.3807 139.06 17.0932 139.588 17.0932 141.18C17.0932 142.396 16.5914 142.771 15.3702 142.466C14.6739 142.292 14.5976 142.063 14.4051 139.572C14.0974 135.585 14.0543 135.632 18.123 135.571C20.5877 135.534 20.6061 135.54 21.4494 136.641ZM151.952 136.625C154.511 137.66 157.567 139.88 160.071 142.523C162.379 144.961 165.486 149.395 165.486 150.252C165.486 151.215 163.597 151.932 159.077 152.683C155.887 153.213 155.514 153.082 154.546 151.091C153.683 149.316 151.543 146.549 150.035 145.259C148.735 144.147 147.598 143.488 145.448 142.599C144.107 142.045 143.919 141.85 143.919 141.01C143.919 140.239 144.195 139.863 145.329 139.086C146.105 138.554 147.042 137.61 147.411 136.987C148.239 135.589 149.202 135.512 151.952 136.625ZM136.504 136.795C137.01 137.737 136.923 141.173 136.378 141.715C136.047 142.045 134.722 142.222 131.63 142.351C129.271 142.448 125.893 142.779 124.123 143.086C118.912 143.988 119.31 144.148 119.201 141.113C119.129 139.084 119.217 138.428 119.605 138.107C119.877 137.882 121.367 137.557 122.916 137.386C135.997 135.941 136.044 135.939 136.504 136.795ZM222.175 144.556C222.539 145.128 222.527 146.474 222.153 147.063C221.904 147.455 220.774 147.519 215.317 147.449C207.359 147.346 206.747 147.26 206.483 146.213C206.374 145.779 206.454 145.052 206.662 144.598L207.04 143.773L214.469 143.948C220.218 144.083 221.961 144.22 222.175 144.556ZM132.102 147.498C132.03 150.559 131.282 153.747 129.737 157.589C128.63 160.342 127.452 162.135 125.522 164C124.018 165.454 120.193 167.604 119.536 167.363C119.246 167.258 119.133 166.202 119.133 163.606C119.133 159.611 119.175 159.518 121.453 158.465C122.109 158.162 123.177 157.268 123.825 156.48C125.563 154.368 126.271 152.247 126.461 148.589C126.551 146.866 126.78 145.359 126.972 145.241C127.56 144.879 129.528 144.566 130.882 144.619L132.17 144.67L132.102 147.498ZM136.773 145.993C136.88 147.446 136.276 148.356 135.205 148.356C134.685 148.356 134.584 148.125 134.584 146.94C134.584 144.929 134.833 144.457 135.832 144.572C136.572 144.657 136.688 144.833 136.773 145.993ZM146.426 145.437C147.899 146.186 150.917 149.303 152.048 151.241C154.005 154.598 155.027 158.675 154.98 162.942C154.941 166.573 154.591 168.123 153.141 171.098C151.526 174.414 146.691 179.131 144.907 179.131C144.12 179.131 144.085 178.84 144.696 177.383C145.199 176.185 146.033 175.605 147.251 175.605C149.382 175.605 149.745 174.136 148.023 172.482C146.651 171.163 145.591 170.796 143.156 170.796C140.49 170.796 138.166 171.918 136.831 173.851C135.923 175.165 135.872 175.412 135.872 178.447C135.872 182.829 135.761 183.045 133.083 183.867C128.958 185.133 122.434 186.504 120.536 186.504C119.91 186.504 119.449 186.31 119.329 185.997C119.221 185.718 119.133 182.134 119.133 178.032C119.133 169.642 119.003 170.095 121.708 169.058C125.426 167.634 128.847 164.421 130.913 160.414C131.925 158.45 132.314 157.976 132.909 157.975C133.755 157.973 135.228 159.297 135.228 160.058C135.228 160.698 134.402 162.314 133.41 163.613C132.391 164.949 132.401 166.233 133.433 166.491C134.249 166.695 138.7 165.898 139.689 165.37C140.059 165.174 140.741 165.186 141.606 165.404C144.28 166.08 147.479 164.616 148.75 162.135C149.544 160.586 149.557 158.102 148.782 155.912C148.042 153.816 147.509 153.507 146.013 154.303C144.851 154.921 144.834 154.921 144.379 154.306C144.035 153.841 143.919 152.619 143.919 149.471C143.919 147.153 144.016 145.161 144.134 145.044C144.494 144.684 145.177 144.802 146.426 145.437ZM124.22 146.472C124.282 147 124.135 147.383 123.826 147.501C123.251 147.721 121.065 146.884 121.065 146.444C121.065 145.931 122.146 145.471 123.157 145.553C123.935 145.616 124.142 145.795 124.22 146.472ZM107.803 149.382C108.207 149.784 108.358 154.918 107.993 155.863C107.705 156.612 106.974 156.492 104.478 155.287C101.799 153.994 99.7224 152.522 98.9769 151.389C97.933 149.802 98.5749 149.609 106.756 149.043C107.12 149.018 107.59 149.17 107.803 149.382ZM96.1179 163.583C96.1179 170.988 96.0455 183.25 95.9569 190.832C95.8288 201.792 95.8826 204.813 96.219 205.578C96.8621 207.041 98.2021 208.272 99.3932 208.495C100.656 208.731 100.745 209.21 99.7047 210.183C98.4349 211.371 96.9963 211.391 95.2713 210.245C94.4357 209.69 93.5637 209.338 93.2862 209.444C93.0142 209.548 92.4271 210.182 91.9812 210.853C90.7648 212.683 88.6571 213.594 85.6564 213.585C82.817 213.577 81.1811 213.08 79.6837 211.771C77.7381 210.069 77.9348 207.833 80.1974 205.937C81.2571 205.049 82.6946 204.84 83.3388 205.482C83.5512 205.693 83.725 206.335 83.725 206.908C83.725 208.717 85.2395 208.886 87.7268 207.355C89.8345 206.057 89.9604 205.607 90.1513 198.686C90.2462 195.248 90.3238 188.54 90.3238 183.779C90.3238 174.07 90.3274 174.089 87.8585 171.295L86.5857 169.855L87.8517 168.162C89.9791 165.316 89.945 165.475 90.0808 157.813C90.1497 153.934 90.2665 150.575 90.3402 150.347C90.4394 150.042 91.2106 149.958 93.2962 150.027L96.1179 150.119V163.583ZM210.39 150.756C211.806 151.011 214.848 151.535 217.15 151.921C219.451 152.306 221.526 152.771 221.761 152.953C222.058 153.183 222.119 153.632 221.961 154.427C221.837 155.055 221.411 157.424 221.015 159.69C220.581 162.18 220.119 163.923 219.849 164.093C218.867 164.713 217.622 164.245 217.566 163.234C217.548 162.897 217.784 161.186 218.092 159.431C218.63 156.355 218.629 156.224 218.061 155.81C217.737 155.574 217.037 155.423 216.506 155.475C215.55 155.568 215.533 155.604 214.896 158.843C214.542 160.643 214.108 162.255 213.931 162.424C213.506 162.831 211.926 162.509 211.72 161.974C211.63 161.743 211.701 160.64 211.877 159.523C212.645 154.635 212.651 154.816 211.697 154.455C211.221 154.274 210.417 154.126 209.911 154.126C208.825 154.126 208.565 154.725 207.836 158.906C207.29 162.036 206.879 162.64 205.617 162.162C204.878 161.882 204.757 161.651 204.757 160.528C204.757 159.808 204.89 158.614 205.053 157.875C205.217 157.136 205.6 155.232 205.905 153.646C206.209 152.059 206.519 150.652 206.592 150.52C206.779 150.184 207.439 150.224 210.39 150.756ZM63.0199 151.37C63.3428 151.793 63.8536 152.587 64.1549 153.133C64.4565 153.68 64.8531 154.126 65.0363 154.126C65.2194 154.126 65.7348 153.549 66.1819 152.844C66.629 152.139 67.1627 151.562 67.3677 151.562C68.2265 151.562 68.918 152.639 68.918 153.977C68.918 155.578 69.2424 155.9 71.1712 156.212C73.0385 156.514 74.1162 157.076 75.1292 158.275C76.1731 159.51 76.4699 160.882 76.0002 162.299C75.5557 163.641 74.5916 164.385 73.2976 164.385C71.8987 164.385 71.1712 163.567 71.1712 161.995C71.1712 159.561 70.1901 159.307 68.1219 161.205C64.4086 164.614 64.5064 168.989 68.4071 173.933C71.7873 178.218 79.467 183.464 85.1314 185.357C87.9917 186.313 87.9486 186.258 87.843 188.847L87.7487 191.152L86.3002 191.098C85.5035 191.069 83.548 190.616 81.9546 190.092C75.2242 187.879 69.6165 184.392 66.9943 180.79C66.1993 179.697 65.3073 178.81 65.0041 178.81C64.7015 178.81 63.7419 179.251 62.8712 179.79C60.5265 181.242 58.3209 181.389 55.8012 180.263C53.4536 179.214 51.755 177.618 52.5014 177.163C52.767 177 53.7764 176.404 54.7447 175.835C60.0872 172.702 61.0944 164.982 56.8206 159.924C55.8894 158.822 53.2389 157.332 52.2092 157.332C50.7349 157.332 50.9963 155.531 52.6527 154.272C54.3124 153.012 55.9602 152.902 57.729 153.934C59.3867 154.902 59.6964 154.739 60.0057 152.736C60.1103 152.058 60.3653 151.301 60.5726 151.053C61.152 150.357 62.3684 150.515 63.0199 151.37ZM169.04 154.309C169.829 155.115 171.47 156.512 172.687 157.414L174.899 159.054L173.009 160.848C171.969 161.835 170.322 163.556 169.348 164.674L167.578 166.707L164.842 166.534C163.195 166.43 161.21 166.052 159.854 165.584L157.603 164.807L157.209 161.31C156.993 159.387 156.724 157.357 156.612 156.8C156.36 155.547 156.82 155.253 159.531 154.936C160.593 154.811 162.621 154.306 164.037 153.813C165.454 153.319 166.836 152.9 167.109 152.88C167.382 152.86 168.251 153.503 169.04 154.309ZM21.1169 154.093C23.8659 155.361 25.2568 157.8 25.2484 161.339C25.2423 164.009 24.7414 165.134 22.8365 166.758C21.3339 168.039 20.0875 168.496 17.3424 168.774C12.4686 169.267 9.03949 166.07 9.04915 161.042C9.05301 158.945 10.2276 156.397 11.6574 155.383C14.2532 153.542 18.6284 152.945 21.1169 154.093ZM122.352 154.591C122.352 155.243 120.208 156.801 119.619 156.576C119.039 156.354 118.976 155.053 119.519 154.511C120.088 153.945 122.352 154.009 122.352 154.591ZM162.75 155.273C160.66 156.358 159.692 157.822 159.692 159.897C159.692 161.533 160.291 162.716 161.779 164.017C162.778 164.89 163.174 165.026 164.724 165.026C167.768 165.026 169.5 163.75 170.296 160.92C170.631 159.731 170.058 157.658 169.099 156.581C167.672 154.981 164.551 154.338 162.75 155.273ZM102.004 156.482C103.369 157.248 105.182 158.136 106.031 158.455C106.881 158.773 107.718 159.299 107.893 159.624C108.067 159.949 108.169 161.838 108.119 163.822C108.031 167.301 108.002 167.434 107.295 167.534C106.245 167.682 101.512 165.306 99.9001 163.82L98.5321 162.56V158.824C98.5321 155.679 98.6103 155.088 99.0262 155.088C99.2979 155.088 100.638 155.716 102.004 156.482ZM15.0785 157.47C13.5869 158 12.9994 158.472 12.4046 159.617C11.8094 160.763 11.8226 161.507 12.4657 163.108C13.1134 164.721 14.2532 165.349 16.5138 165.339C19.4865 165.327 21.9097 163.743 22.4074 161.486C22.6671 160.309 21.4839 158.017 20.3109 157.426C19.2689 156.901 16.6165 156.923 15.0785 157.47ZM167.337 158.141C168.332 159.281 168.303 160.967 167.271 161.995C166.661 162.602 166.143 162.782 165.003 162.782C163.863 162.782 163.345 162.602 162.735 161.995C161.372 160.637 161.884 158.071 163.669 157.315C164.798 156.837 166.542 157.229 167.337 158.141ZM101.077 167.429C102.035 168.036 103.773 168.845 104.94 169.225C108.399 170.353 108.19 169.758 108.184 178.459C108.181 182.619 108.052 186.223 107.897 186.467C107.497 187.095 100.001 186.671 98.8836 185.957L98.1085 185.461L98.3235 176.17C98.4416 171.059 98.618 166.75 98.7152 166.593C98.9837 166.16 99.1965 166.235 101.077 167.429ZM160.973 168.218C162.297 168.578 163.859 168.873 164.443 168.873C165.107 168.873 165.578 169.06 165.698 169.371C165.961 170.053 165.037 172.07 163.062 175.124C160.843 178.555 158.895 180.641 155.555 183.159C152.671 185.333 146.229 188.748 145.011 188.748C144.142 188.748 143.929 188.019 143.923 185.031C143.918 182.431 144.028 182.273 146.816 180.891C149.637 179.492 153.542 175.338 155.154 172.02C155.879 170.528 156.473 169.075 156.473 168.792C156.473 168.055 157.413 167.22 158.036 167.405C158.327 167.492 159.649 167.858 160.973 168.218ZM218.534 167.975C219.142 168.581 218.989 169.35 217.21 174.643C215.685 179.18 215.47 179.62 214.735 179.705C214.292 179.757 213.655 179.599 213.32 179.355C212.736 178.93 212.732 178.843 213.24 177.361C213.531 176.508 213.77 175.573 213.77 175.282C213.77 174.88 212.411 174.306 208.154 172.908C205.065 171.894 202.401 170.895 202.233 170.69C201.809 170.17 202.527 168.105 203.174 167.982C203.455 167.928 206.115 168.673 209.087 169.636C212.059 170.6 214.692 171.311 214.937 171.217C215.183 171.123 215.476 170.665 215.588 170.2C216.146 167.879 217.449 166.895 218.534 167.975ZM27.8261 169.992L28.3186 171.432L26.3435 174.398C24.9384 176.507 24.368 177.665 24.368 178.408C24.368 180.162 24.8389 180.312 27.3117 179.346C30.3317 178.166 31.0611 178.206 31.4838 179.578C31.6682 180.177 31.7242 180.819 31.6084 181.006C31.4925 181.193 29.8811 181.938 28.0276 182.661C26.1742 183.385 23.1706 184.56 21.3525 185.272C19.5348 185.985 17.8291 186.485 17.5619 186.383C16.7575 186.075 13.873 178.66 13.8756 176.907C13.8772 175.845 14.8976 174.189 15.9892 173.477C17.343 172.593 19.6867 172.733 21.0644 173.78C22.3398 174.749 22.5661 174.818 22.5641 174.242C22.5632 174.022 23.3734 172.652 24.3645 171.197C26.4896 168.078 27.0986 167.866 27.8261 169.992ZM144.885 173.322C144.885 173.476 144.661 173.788 144.387 174.014C142.036 175.957 141.577 178.412 141.807 187.786C141.909 191.93 142.128 195.897 142.293 196.602C142.484 197.416 142.983 198.217 143.659 198.796C144.682 199.671 144.821 199.7 147.218 199.527C149.988 199.327 150.154 199.471 149.225 201.261C148.292 203.058 145.757 203.689 141.988 203.063C140.603 202.833 140.475 202.88 139.091 204.132C137.076 205.953 134.277 207.552 131.396 208.527C129.323 209.228 128.387 209.353 125.249 209.351C119.697 209.347 115.241 207.91 112.744 205.319L111.667 204.2L109.118 204.374C106.324 204.565 104.5 204.038 103.737 202.821C103.14 201.868 103.575 201.496 105.004 201.737C106.922 202.06 108.899 200.992 109.624 199.24C110.629 196.814 110.448 196.93 113.376 196.831L116.081 196.74L116.893 198.428C118.893 202.59 124.941 204.616 130.56 203.006C133.071 202.286 134.017 201.79 135.614 200.353C138.051 198.16 138.125 197.746 138.125 186.301C138.125 175.018 138.158 174.829 140.303 173.7C141.531 173.055 144.885 172.778 144.885 173.322ZM17.5989 176.749C17.3208 177.027 17.0932 177.519 17.0932 177.843C17.0932 178.806 18.4581 182.066 18.938 182.249C19.5383 182.479 21.9216 181.378 21.9216 180.872C21.9216 180.243 20.6476 177.433 20.0785 176.807C19.445 176.11 18.2688 176.083 17.5989 176.749ZM200.989 182.176C203.49 183.498 204.71 183.579 210.004 182.772C213.966 182.169 214.447 182.312 213.787 183.898C213.193 185.326 212.508 185.772 210.551 186.002C207.039 186.415 206.366 186.567 206.366 186.945C206.366 187.156 207.11 188.447 208.02 189.813L209.673 192.296L209.097 193.567C208.213 195.519 207.644 195.248 205.545 191.874C204.53 190.243 203.354 188.364 202.932 187.699C202.347 186.78 201.51 186.168 199.436 185.144C196.6 183.743 196.409 183.485 197.023 181.877C197.456 180.742 198.411 180.814 200.989 182.176ZM135.711 188.894V191.765L134.314 192.168C132.218 192.772 127.827 193.458 123.306 193.887C118.861 194.309 101.44 194.138 99.4978 193.653L98.3711 193.372L98.2759 191.216C98.1964 189.415 98.272 189.025 98.7358 188.848C99.041 188.731 101.619 188.785 104.464 188.967C110.706 189.367 119.788 189.043 124.182 188.264C125.92 187.956 128.862 187.297 130.721 186.802C132.58 186.305 134.463 185.927 134.906 185.961C135.7 186.022 135.711 186.062 135.711 188.894ZM28.6495 188.892C29.6548 189.41 31.2012 191.058 32.0954 192.566C32.4186 193.111 32.912 193.557 33.1917 193.557C33.4715 193.557 34.4906 193.056 35.4559 192.443C37.517 191.135 38.1238 191.06 38.8027 192.025C39.8794 193.556 39.6122 193.842 33.5877 197.604C25.9791 202.355 26.4558 202.136 25.7486 201.208C24.9217 200.124 22.0301 195.043 21.7633 194.205C21.1945 192.421 22.6395 189.747 24.6416 188.878C25.9418 188.314 27.5387 188.32 28.6495 188.892ZM25.6636 192.44C25.3759 192.727 25.1406 193.317 25.1406 193.752C25.1406 194.727 26.2981 197.053 26.8965 197.282C27.4331 197.487 28.9614 196.732 29.7362 195.88C30.286 195.275 30.268 195.196 29.2234 193.683C28.0205 191.94 26.6473 191.461 25.6636 192.44ZM135.82 194.971C136.157 196.704 134.206 199.172 131.604 200.306C129.103 201.395 125.048 201.538 122.613 200.624C120.782 199.937 118.811 198.181 118.811 197.238C118.811 196.692 119.227 196.593 123.479 196.128C127.219 195.718 134.665 194.545 134.88 194.331C135.165 194.046 135.712 194.418 135.82 194.971ZM102.197 196.143C103.811 196.332 105.755 196.558 106.518 196.647C107.787 196.794 107.897 196.878 107.806 197.635C107.751 198.09 107.313 198.753 106.832 199.109C106.055 199.684 105.816 199.713 104.674 199.372C103.968 199.162 102.964 198.632 102.443 198.196C101.372 197.299 100.713 197.199 100.168 197.852C99.5493 198.595 100.669 202.24 102.314 204.838C103.013 205.943 102.758 206.167 100.771 206.196C99.0043 206.221 98.7523 206.018 98.2131 204.135C97.7905 202.659 97.7966 197.212 98.2215 196.421C98.6122 195.694 98.4481 195.705 102.197 196.143ZM181.357 211.188C182.526 212.069 183.712 212.791 183.992 212.791C184.272 212.791 185.536 212.067 186.801 211.182C188.066 210.297 189.223 209.695 189.373 209.844C189.522 209.993 189.28 211.186 188.834 212.495C188.388 213.803 188.022 215.185 188.021 215.565C188.019 216.05 188.691 216.753 190.271 217.92C191.511 218.835 192.525 219.699 192.525 219.839C192.525 220.31 191.527 220.484 188.825 220.484H186.143L185.15 223.076C184.603 224.502 184.156 225.812 184.156 225.988C184.156 226.164 183.975 226.251 183.753 226.181C183.532 226.111 182.957 224.848 182.475 223.374C181.993 221.9 181.414 220.577 181.187 220.434C180.961 220.291 179.605 220.172 178.174 220.169C176.743 220.166 175.485 220.078 175.379 219.972C174.971 219.566 175.584 218.904 177.737 217.426C178.966 216.582 179.971 215.712 179.971 215.492C179.971 215.272 179.683 214.178 179.331 213.06C178.651 210.896 178.509 209.585 178.957 209.585C179.108 209.585 180.188 210.306 181.357 211.188ZM51.8863 215.195C53.1716 216.165 54.3066 216.958 54.4083 216.957C54.5104 216.957 55.6801 216.236 57.0079 215.355C58.3357 214.475 59.5309 213.754 59.6635 213.753C60.0971 213.752 59.9191 214.881 59.115 217.235C58.6808 218.507 58.3975 219.722 58.4857 219.936C58.5739 220.149 59.6558 221.092 60.8896 222.03C62.1235 222.969 63.0502 223.87 62.9485 224.034C62.8471 224.198 61.5051 224.334 59.9664 224.336C58.4278 224.339 56.9912 224.453 56.7742 224.591C56.5573 224.728 56.0938 225.731 55.7445 226.82C54.9481 229.303 54.4856 230.172 54.0398 230.025C53.8476 229.961 53.3503 228.769 52.9344 227.375C52.5182 225.983 52.0263 224.692 51.8412 224.507C51.6558 224.322 50.2076 224.121 48.623 224.059C46.5966 223.98 45.7417 223.828 45.7417 223.547C45.7417 223.327 46.7534 222.44 47.9898 221.576C50.5595 219.779 50.6126 219.605 49.6044 216.317C48.5232 212.791 48.6304 212.739 51.8863 215.195ZM37.2814 225.217C47.3676 234.312 57.5033 240.853 70.0523 246.368C76.5401 249.219 87.1696 252.321 94.9913 253.647C96.6732 253.932 98.8459 254.322 99.8197 254.513C100.793 254.704 102.604 254.94 103.843 255.036C105.515 255.167 105.889 255.273 105.292 255.447C104.07 255.805 18.7761 255.804 18.554 255.446C18.4513 255.281 19.509 254.28 20.9048 253.221C24.9587 250.148 28.0318 246.227 30.005 241.609C31.9949 236.952 32.7562 233.245 33.0665 226.703C33.1869 224.164 33.4035 222.087 33.5478 222.087C33.6923 222.087 35.3722 223.496 37.2814 225.217ZM196.846 227.078C196.972 229.823 197.291 233.105 197.556 234.371C199.291 242.678 203.343 249.231 209.328 253.408C210.71 254.372 211.76 255.294 211.66 255.454C211.434 255.818 125.747 255.791 124.605 255.427C123.959 255.22 124.118 255.163 125.41 255.133C126.295 255.113 127.889 254.887 128.951 254.632C130.013 254.376 131.36 254.162 131.943 254.156C132.526 254.149 133.902 253.939 135.001 253.689C136.1 253.439 137.867 253.058 138.93 252.842C158.377 248.898 176.812 239.395 192.705 225.123C194.564 223.453 196.205 222.087 196.351 222.087C196.497 222.087 196.72 224.333 196.846 227.078ZM154.275 224.541C154.606 224.84 154.861 225.506 154.859 226.064C154.855 226.992 154.686 227.133 152.258 228.246C149.897 229.328 149.682 229.502 149.885 230.169C150.239 231.337 150.54 231.472 151.591 230.93C153.6 229.896 156.44 230.406 157.964 232.075C159.651 233.921 160.236 237.11 159.238 239.013C158.107 241.169 156.038 242.39 153.517 242.39C152.02 242.39 151.475 242.231 150.538 241.519C149.064 240.4 149.055 239.547 150.509 238.857C151.564 238.356 151.69 238.36 152.75 238.928C154.811 240.034 156.745 238.581 156.119 236.397C155.627 234.683 154.761 233.798 153.465 233.689C152.469 233.604 152.132 233.761 151.243 234.724C149.971 236.103 148.32 236.561 147.852 235.666C147.411 234.823 146.172 229.278 146.172 228.149C146.172 227.393 146.38 227.115 147.218 226.748C147.794 226.496 149.423 225.78 150.84 225.157C152.256 224.534 153.476 224.021 153.55 224.017C153.625 224.014 153.951 224.25 154.275 224.541ZM81.4467 225.788C86.7305 227.824 87.6351 228.283 88.4414 229.335C90.1632 231.584 89.1637 236.005 86.6398 237.305C85.347 237.971 83.0072 237.914 80.5882 237.159C79.4828 236.814 78.3942 236.602 78.1692 236.688C77.9445 236.774 77.4166 237.816 76.9965 239.003C75.9491 241.962 75.6153 242.302 74.1906 241.867C73.569 241.677 72.9358 241.29 72.7836 241.006C72.4858 240.452 74.5353 234.34 77.8102 226.014C78.3072 224.751 78.6913 224.727 81.4467 225.788ZM80.5911 229.541C80.0558 230.22 79.2008 233.097 79.458 233.353C79.5919 233.486 80.5412 233.812 81.5674 234.079C83.7553 234.646 84.8951 234.366 85.1912 233.191C85.6029 231.557 85.2553 230.943 83.4031 230.032C81.3907 229.041 81.0337 228.979 80.5911 229.541ZM92.6971 234.557C93.1835 234.864 93.1636 235.125 92.261 240.287C91.708 243.45 91.708 243.604 92.2616 244.214C92.9987 245.025 94.7096 245.048 95.4287 244.257C95.9985 243.63 96.7784 241.023 97.2613 238.134C97.6395 235.871 98.0212 235.501 99.6037 235.858C100.282 236.011 100.922 236.222 101.027 236.326C101.254 236.552 99.623 245.484 99.0613 247.092C98.5801 248.469 97.6627 248.683 96.1227 247.778C95.243 247.261 94.6768 247.17 93.2502 247.317C91.1125 247.537 89.7695 247.06 88.8315 245.749C88.2634 244.954 88.1852 244.483 88.3194 242.665C88.4646 240.694 88.8344 238.581 89.5783 235.471C89.8468 234.348 89.9443 234.269 91.0606 234.274C91.7176 234.277 92.4541 234.404 92.6971 234.557ZM106.247 236.984C106.696 237.389 106.943 237.386 108.189 236.958C110.785 236.067 112.989 236.925 114.011 239.226C114.55 240.44 114.584 240.899 114.296 243.126C114.117 244.514 113.864 246.515 113.733 247.573L113.496 249.496H112.05H110.603L110.596 244.968C110.591 241.648 110.473 240.302 110.154 239.919C109.616 239.274 107.759 239.236 107.238 239.861C106.646 240.572 105.947 243.526 105.907 245.489C105.851 248.241 105.593 248.839 104.409 248.954C103.848 249.009 103.082 248.889 102.705 248.688C102.107 248.37 102.044 248.131 102.209 246.826C102.313 246.002 102.543 243.468 102.719 241.194C102.895 238.92 103.212 236.852 103.423 236.598C103.875 236.055 105.456 236.272 106.247 236.984ZM124.576 237.454C125.754 238.289 127.172 240.97 127.177 242.371C127.181 243.459 126.275 243.878 123.86 243.905C120.962 243.937 119.628 244.29 119.518 245.055C119.416 245.762 120.762 247.092 121.58 247.092C121.815 247.092 122.513 246.65 123.131 246.11C124.038 245.317 124.489 245.147 125.476 245.228C127.173 245.368 127.306 246.389 125.821 247.869C123.521 250.159 119.426 250.219 117.241 247.994C116.223 246.957 115.271 244.389 115.271 242.682C115.271 240.472 116.861 237.745 118.611 236.956C120.152 236.262 123.26 236.521 124.576 237.454ZM141.366 239.297C142.137 241.316 141.128 242.081 137.148 242.495C135.426 242.674 135.313 242.642 135.119 241.923C134.806 240.758 134.867 239.781 135.267 239.534C135.837 239.183 138.823 238.511 139.984 238.472C140.847 238.443 141.097 238.592 141.366 239.297ZM120.487 239.437C119.583 239.77 118.875 241.193 119.369 241.685C119.857 242.17 122.991 241.707 123.219 241.116C123.424 240.584 122.565 239.528 121.756 239.318C121.451 239.238 120.88 239.292 120.487 239.437ZM16.4759 273.539C16.94 275.478 17.409 276.849 17.5178 276.584C17.6269 276.32 18.0551 274.733 18.4693 273.058L19.2226 270.012L20.7409 269.914L22.2593 269.816L22.1708 275.204L22.0826 280.591H21.2778H20.4731L20.3122 276.584C20.1824 273.356 20.0991 272.826 19.8828 273.859C19.7353 274.565 19.324 276.404 18.9689 277.947C18.3428 280.666 18.2952 280.752 17.4058 280.752C16.4971 280.752 16.4797 280.715 15.5836 276.854L14.679 272.956L14.5181 276.774L14.3572 280.591L13.472 280.693L12.5867 280.794V275.306V269.817L14.1093 269.915L15.6319 270.012L16.4759 273.539ZM39.3038 275.302V280.752H38.4991C37.9728 280.752 37.6944 280.572 37.6944 280.234C37.6944 279.757 37.6313 279.757 36.9009 280.234C35.7849 280.962 34.6589 280.878 33.6208 279.989C32.8396 279.32 32.715 278.954 32.6046 277.007C32.4884 274.959 32.5473 274.706 33.3688 273.734C34.1346 272.828 34.421 272.699 35.4134 272.817C36.0482 272.892 36.8211 273.065 37.1311 273.201C37.63 273.419 37.6944 273.242 37.6944 271.65C37.6944 269.946 37.7365 269.852 38.4991 269.852H39.3038V275.302ZM73.6765 270.353C74.6798 271.052 75.5177 272.702 74.9647 272.888C73.9141 273.242 73.5262 273.146 72.7147 272.33C71.6431 271.253 70.8326 271.225 69.667 272.223C68.8619 272.913 68.7699 273.2 68.7638 275.041C68.7551 277.702 69.4214 278.828 71.0051 278.828C72.0841 278.828 72.3748 278.645 73.2065 277.443C73.5078 277.007 73.8326 276.914 74.4832 277.077C74.9631 277.197 75.3558 277.402 75.3558 277.533C75.3558 278.069 73.8342 279.969 73.0929 280.36C72.0059 280.932 69.4079 280.679 68.5475 279.917C66.1162 277.763 66.0663 272.928 68.4541 270.84C69.4092 270.005 69.8456 269.852 71.2716 269.852C72.2801 269.852 73.2481 270.053 73.6765 270.353ZM87.515 275.222L87.4268 280.591L86.5416 280.693L85.6564 280.794V275.323V269.852H86.6298H87.6032L87.515 275.222ZM91.3777 275.222L91.2895 280.591L90.4043 280.693L89.5191 280.794V275.323V269.852H90.4925H91.4659L91.3777 275.222ZM133.882 270.399C133.823 270.7 133.415 271.03 132.973 271.134C131.874 271.39 131.678 272.647 132.714 272.793C133.199 272.861 133.493 273.149 133.56 273.619C133.644 274.206 133.51 274.34 132.836 274.34H132.009V277.567V280.794L131.124 280.693L130.239 280.591L130.146 277.466C130.073 274.977 129.958 274.34 129.583 274.34C129.295 274.34 129.112 274.029 129.112 273.539C129.112 273.072 129.297 272.737 129.554 272.737C129.798 272.737 130.089 272.282 130.2 271.726C130.503 270.219 130.963 269.852 132.555 269.852C133.732 269.852 133.969 269.95 133.882 270.399ZM145.85 270.814V271.776H143.114H140.378V272.898V274.02H142.953H145.528V274.981V275.943H142.953H140.378V277.386V278.828H143.296H146.215L146.113 279.71L146.011 280.591H142.309H138.608L138.52 275.222L138.431 269.852H142.141H145.85V270.814ZM166.773 270.814C166.773 271.669 166.666 271.776 165.808 271.776C164.949 271.776 164.842 271.669 164.842 270.814C164.842 269.959 164.949 269.852 165.808 269.852C166.666 269.852 166.773 269.959 166.773 270.814ZM200.25 270.814C200.25 271.669 200.143 271.776 199.284 271.776C198.426 271.776 198.319 271.669 198.319 270.814C198.319 269.959 198.426 269.852 199.284 269.852C200.143 269.852 200.25 269.959 200.25 270.814ZM29.3664 273.239C29.9088 273.519 30.5448 274.226 30.7991 274.832C32.1243 277.991 30.0996 281.068 26.9705 280.651C25.2043 280.415 24.1485 279.293 23.9373 277.429C23.5327 273.852 26.3441 271.683 29.3664 273.239ZM45.7594 273.068C46.5844 273.507 47.3512 275.039 47.3512 276.248V277.225H45.0979C43.1427 277.225 42.8447 277.302 42.8447 277.802C42.8447 279.061 44.7622 279.689 45.3593 278.626C45.5939 278.209 45.8389 278.166 46.5809 278.412L47.5089 278.72L46.4891 279.736C44.8475 281.371 42.4053 281.092 41.3994 279.155C40.8286 278.056 40.7598 275.559 41.2729 274.559C42.1053 272.938 44.2066 272.24 45.7594 273.068ZM50.7725 273.21C50.9328 273.626 51.0107 273.626 51.4292 273.21C52.1081 272.534 53.4684 272.593 53.4623 273.298C53.4546 274.163 52.9862 274.703 52.4287 274.49C51.472 274.124 50.892 275.555 50.892 278.28V280.794L50.0068 280.693L49.1216 280.591L49.0311 276.664L48.9407 272.737H49.7657C50.2192 272.737 50.6721 272.95 50.7725 273.21ZM56.246 273.214C56.4082 273.635 56.5084 273.635 57.1122 273.214C58.1069 272.52 59.6935 272.615 60.4184 273.411C60.9366 273.981 61.0316 274.589 61.0316 277.338V280.591L60.1464 280.693L59.2612 280.794V278.074C59.2612 274.728 59.125 274.34 57.9504 274.34C56.6783 274.34 56.3641 275.102 56.3641 278.187V280.794L55.4789 280.693L54.5937 280.591L54.5017 277.086C54.4511 275.158 54.483 273.39 54.5722 273.159C54.7933 272.584 56.0191 272.624 56.246 273.214ZM82.3676 273.238C84.6894 274.857 84.5465 279.019 82.1262 280.265C78.6375 282.062 75.361 278.332 77.2073 274.665C77.5167 274.051 78.1321 273.368 78.5747 273.147C79.6856 272.594 81.5078 272.638 82.3676 273.238ZM97.8416 273.194C98.8585 273.718 99.4978 274.908 99.4978 276.279V277.225H97.0836C95.7558 277.225 94.6694 277.337 94.6694 277.474C94.6694 277.612 94.895 278.044 95.1706 278.436C95.758 279.271 97.0829 279.38 97.5059 278.626C97.7406 278.209 97.9855 278.166 98.7275 278.412L99.6555 278.72L98.6357 279.736C96.6603 281.703 93.6824 280.791 93.0593 278.028C92.2285 274.347 94.8783 271.668 97.8416 273.194ZM105.295 273.222C105.654 273.652 105.741 273.648 106.08 273.187C106.289 272.901 106.741 272.721 107.083 272.786C107.644 272.893 107.716 273.24 107.805 276.267C107.992 282.631 107.517 283.637 104.326 283.637C102.251 283.637 101.107 282.969 101.107 281.758C101.107 281.282 101.287 281.193 101.992 281.319C102.479 281.406 103.135 281.7 103.451 281.974C103.885 282.351 104.235 282.398 104.899 282.167C105.622 281.915 105.793 281.641 105.879 280.594C105.977 279.395 105.952 279.354 105.396 279.83C103.968 281.055 102.467 280.77 101.43 279.077C100.3 277.23 100.781 273.973 102.314 273.084C103.158 272.594 104.837 272.672 105.295 273.222ZM114.642 273.619C115.352 274.251 115.684 274.886 115.815 275.863L115.999 277.225H113.543C111.014 277.225 110.792 277.362 111.419 278.529C111.823 279.28 112.922 279.334 113.693 278.639C114.334 278.061 115.592 278.292 115.592 278.987C115.592 279.782 113.964 280.752 112.627 280.752C110.198 280.752 108.616 278.036 109.443 275.288C110.198 272.777 112.768 271.952 114.642 273.619ZM126.509 273.204C127.766 273.851 128.587 275.688 128.363 277.35C128.231 278.331 127.884 278.944 127.003 279.747C125.937 280.72 125.677 280.811 124.37 280.664C123.381 280.553 122.651 280.233 122.073 279.657C121.33 278.918 121.226 278.554 121.226 276.711C121.226 274.741 121.292 274.549 122.277 273.673C123.471 272.61 125.023 272.438 126.509 273.204ZM149.391 273.218C149.391 273.816 149.695 273.814 150.499 273.208C151.356 272.562 152.712 272.618 153.601 273.335C154.285 273.886 154.343 274.185 154.361 277.262L154.38 280.591L153.495 280.693L152.61 280.794V278.187C152.61 275.213 152.281 274.34 151.162 274.34C150.042 274.34 149.713 275.213 149.713 278.187V280.794L148.828 280.693L147.943 280.591L147.852 276.664L147.762 272.737H148.576C149.086 272.737 149.391 272.917 149.391 273.218ZM160.586 273.236C161.233 273.688 161.301 273.688 161.301 273.236C161.301 272.918 161.592 272.737 162.106 272.737H162.911V277.4C162.911 281.923 162.887 282.086 162.12 282.85C161.47 283.498 161.012 283.637 159.531 283.637C158.049 283.637 157.591 283.498 156.941 282.85C155.781 281.694 155.889 281.036 157.196 281.296C157.77 281.411 158.432 281.696 158.667 281.929C159.528 282.787 160.801 282.143 161.158 280.671C161.404 279.651 161.395 279.647 159.993 280.234C157.473 281.289 155.41 278.729 156.149 275.462C156.669 273.165 158.887 272.052 160.586 273.236ZM166.773 276.766V280.794L165.888 280.693L165.003 280.591L164.911 277.086C164.86 275.158 164.892 273.39 164.981 273.159C165.071 272.927 165.51 272.737 165.959 272.737H166.773V276.766ZM170.518 273.214C170.68 273.635 170.78 273.635 171.384 273.214C172.379 272.52 173.965 272.615 174.69 273.411C175.209 273.981 175.303 274.589 175.303 277.338V280.591L174.418 280.693L173.533 280.794V278.074C173.533 274.728 173.397 274.34 172.222 274.34C170.95 274.34 170.636 275.102 170.636 278.187V280.794L169.751 280.693L168.866 280.591L168.774 277.086C168.723 275.158 168.755 273.39 168.844 273.159C169.065 272.584 170.291 272.624 170.518 273.214ZM182.239 273.619C182.949 274.251 183.282 274.886 183.413 275.863L183.596 277.225H181.14C178.612 277.225 178.389 277.362 179.017 278.529C179.428 279.294 180.878 279.352 181.412 278.624C181.719 278.206 181.989 278.162 182.733 278.409L183.669 278.72L182.65 279.736C180.011 282.363 176.254 279.828 176.925 275.873C177.417 272.97 180.189 271.795 182.239 273.619ZM189.776 273.239C190.587 273.768 191.237 275.207 191.237 276.472C191.237 277.19 191.134 277.225 189.003 277.225C187.774 277.225 186.694 277.346 186.602 277.494C186.51 277.641 186.655 278.074 186.923 278.455C187.498 279.273 188.827 279.371 189.245 278.626C189.48 278.209 189.725 278.166 190.467 278.412L191.395 278.72L190.375 279.736C187.561 282.538 183.674 279.465 184.794 275.324C185.408 273.05 187.892 272.01 189.776 273.239ZM194.456 273.268C194.456 273.762 194.497 273.762 195.045 273.268C195.852 272.541 197.355 272.561 197.348 273.298C197.341 274.135 196.879 274.704 196.362 274.515C195.316 274.131 194.942 274.9 194.778 277.774C194.619 280.564 194.608 280.592 193.732 280.693L192.847 280.794V276.766V272.737H193.651C194.186 272.737 194.456 272.916 194.456 273.268ZM200.25 276.766V280.794L199.365 280.693L198.48 280.591L198.389 276.664L198.299 272.737H199.275H200.25V276.766ZM203.995 273.214C204.157 273.635 204.257 273.635 204.861 273.214C205.798 272.56 207.111 272.617 208.02 273.35C208.73 273.922 208.78 274.181 208.78 277.277V280.591L207.895 280.693L207.01 280.794V278.074C207.01 274.728 206.874 274.34 205.699 274.34C204.427 274.34 204.113 275.102 204.113 278.187V280.794L203.228 280.693L202.342 280.591L202.25 277.086C202.2 275.158 202.232 273.39 202.321 273.159C202.542 272.584 203.768 272.624 203.995 273.214ZM214.985 273.236C215.633 273.688 215.701 273.688 215.701 273.236C215.701 272.918 215.992 272.737 216.506 272.737H217.31V277.4C217.31 281.923 217.287 282.086 216.52 282.85C215.87 283.498 215.412 283.637 213.931 283.637C212.449 283.637 211.991 283.498 211.341 282.85C210.181 281.694 210.288 281.036 211.596 281.296C212.17 281.411 212.832 281.696 213.067 281.929C214.057 282.916 215.701 281.858 215.701 280.234C215.701 279.541 215.696 279.541 214.553 280.121C212.592 281.117 210.754 279.935 210.548 277.546C210.367 275.435 210.572 274.59 211.492 273.674C212.555 272.615 213.86 272.451 214.985 273.236ZM26.3171 274.926C25.6456 275.665 25.6289 277.503 26.2855 278.436C27.3507 279.951 29.3252 278.852 29.3252 276.744C29.3252 274.704 27.5139 273.61 26.3171 274.926ZM34.7561 274.87C34.5134 275.162 34.3145 276.005 34.3145 276.744C34.3145 278.295 34.8862 279.149 35.924 279.149C36.9679 279.149 37.4797 278.358 37.4797 276.744C37.4797 275.97 37.293 275.112 37.0648 274.838C36.5211 274.185 35.313 274.202 34.7561 274.87ZM43.04 274.847C42.6747 275.795 42.8434 275.943 44.2932 275.943C45.8566 275.943 45.911 275.895 45.4085 274.96C44.9955 274.192 43.3233 274.112 43.04 274.847ZM79.0759 275.053C78.0072 276.572 78.8059 279.149 80.3451 279.149C81.3466 279.149 82.1156 278.025 82.1156 276.562C82.1156 274.554 80.1227 273.564 79.0759 275.053ZM95.1004 274.881C94.9858 275.201 94.8332 275.57 94.7618 275.703C94.69 275.835 95.3019 275.943 96.1214 275.943C97.4824 275.943 97.6021 275.881 97.5085 275.222C97.3707 274.257 95.4226 273.982 95.1004 274.881ZM103.05 274.96C102.867 275.301 102.717 276.032 102.717 276.584C102.717 278.1 103.239 278.828 104.326 278.828C105.414 278.828 105.936 278.1 105.936 276.584C105.936 275.068 105.414 274.34 104.326 274.34C103.723 274.34 103.263 274.564 103.05 274.96ZM111.419 274.96C110.917 275.895 110.971 275.943 112.534 275.943C113.508 275.943 113.983 275.806 113.983 275.526C113.983 274.341 111.988 273.9 111.419 274.96ZM123.529 274.926C122.286 276.294 123.167 279.149 124.833 279.149C125.7 279.149 126.204 278.504 126.432 277.1C126.789 274.913 124.855 273.466 123.529 274.926ZM158.37 274.861C158.131 275.148 157.936 275.923 157.936 276.584C157.936 278.002 158.523 278.828 159.531 278.828C160.539 278.828 161.126 278.002 161.126 276.584C161.126 275.166 160.539 274.34 159.531 274.34C159.132 274.34 158.609 274.575 158.37 274.861ZM179.017 274.96C178.514 275.895 178.568 275.943 180.132 275.943C181.106 275.943 181.58 275.806 181.58 275.526C181.58 274.341 179.586 273.9 179.017 274.96ZM186.84 274.881C186.725 275.201 186.573 275.57 186.501 275.703C186.429 275.835 187.099 275.943 187.989 275.943C189.531 275.943 189.595 275.909 189.341 275.222C188.989 274.266 187.15 274.015 186.84 274.881ZM212.77 274.861C212.531 275.148 212.336 275.923 212.336 276.584C212.336 278.002 212.923 278.828 213.931 278.828C214.938 278.828 215.526 278.002 215.526 276.584C215.526 275.166 214.938 274.34 213.931 274.34C213.531 274.34 213.009 274.575 212.77 274.861ZM94.1579 291.996C95.262 293.303 95.29 295.116 94.2255 296.349C93.5492 297.131 93.1906 297.251 91.1675 297.364L88.8753 297.494V299.541V301.589H87.9096H86.944V296.299V291.01H90.1342C93.3017 291.01 93.3306 291.017 94.1579 291.996ZM143.275 291.956C143.275 292.893 143.255 292.904 141.263 292.998C139.456 293.084 139.241 293.167 139.148 293.815C139.056 294.463 139.18 294.536 140.38 294.536C142.336 294.536 143.597 295.859 143.597 297.909C143.597 299.187 143.435 299.57 142.503 300.499C141.57 301.427 141.186 301.589 139.903 301.589C138.668 301.589 138.228 301.42 137.456 300.652C136.219 299.419 136.224 298.703 137.47 298.703C138.104 298.703 138.543 298.925 138.779 299.363C139.044 299.857 139.39 299.998 140.152 299.924C141.391 299.804 141.978 298.588 141.475 297.181C141.146 296.258 140.999 296.231 137.964 296.526C137.077 296.612 137.001 296.541 137.038 295.658C137.06 295.129 137.251 293.867 137.463 292.853L137.849 291.01H140.562H143.275V291.956ZM77.9705 292.801L79.1715 293.629L80.3963 292.801C81.9453 291.752 82.5887 291.716 82.2974 292.693C82.179 293.089 82.001 293.934 81.9018 294.569C81.7425 295.591 81.8368 295.805 82.7233 296.434C84.1972 297.479 84.0356 298.062 82.2717 298.062C80.9777 298.062 80.7488 298.176 80.1807 299.104C79.8298 299.677 79.5424 300.399 79.5417 300.707C79.5395 301.654 78.6755 301.329 78.2654 300.226C77.5814 298.387 77.4072 298.227 75.8528 298.004C75.0136 297.884 74.2363 297.695 74.1249 297.584C74.0135 297.473 74.4799 296.917 75.1614 296.347C76.3859 295.323 76.3978 295.291 76.1699 293.641C75.8982 291.674 76.1605 291.551 77.9705 292.801ZM151.535 292.791L152.613 293.61L154.203 292.719C155.951 291.741 156.453 291.857 155.881 293.107C155.213 294.569 155.414 295.731 156.473 296.51C157.87 297.539 157.706 298.01 155.909 298.125C154.454 298.218 154.346 298.292 153.65 299.665C153.248 300.459 152.761 301.108 152.567 301.108C152.372 301.108 151.973 300.46 151.679 299.668C151.17 298.294 151.074 298.218 149.593 298.007C148.739 297.885 147.95 297.695 147.838 297.584C147.727 297.473 148.193 296.917 148.875 296.347C150.099 295.323 150.111 295.291 149.883 293.641C149.613 291.687 149.892 291.543 151.535 292.791ZM88.8753 294.216V295.818H90.1841C92.0002 295.818 92.738 295.355 92.738 294.216C92.738 293.076 92.0002 292.613 90.1841 292.613H88.8753V294.216ZM70.7824 296.41C70.8419 298.108 70.7392 299.251 70.5017 299.536C70.1846 299.916 65.3836 299.986 39.4484 299.986C11.988 299.986 8.71695 299.933 8.26405 299.482C7.63733 298.858 7.54526 294.556 8.14624 293.957C8.44463 293.66 15.7069 293.59 39.6112 293.653L70.6884 293.735L70.7824 296.41ZM112.227 294.361C112.961 295.092 113.017 295.377 113.017 298.368V301.589H112.052H111.086V298.925C111.086 295.685 110.667 294.862 109.268 295.352C108.217 295.72 107.964 296.507 107.905 299.585L107.867 301.589H106.901H105.936V297.742V293.895H106.901C107.585 293.895 107.867 294.05 107.867 294.425C107.867 294.903 107.923 294.907 108.43 294.467C109.709 293.358 111.178 293.317 112.227 294.361ZM120.026 294.217C121.164 294.908 121.708 295.951 121.708 297.442V298.383H119.133C116.421 298.383 116.117 298.585 117.202 299.665C118.001 300.461 118.668 300.48 119.318 299.724C119.659 299.327 120.121 299.185 120.764 299.279C121.959 299.454 121.951 299.725 120.718 300.759C118.947 302.243 116.049 301.753 115.125 299.813C114.09 297.641 114.822 294.838 116.627 294.057C118.071 293.432 118.79 293.466 120.026 294.217ZM222.718 293.959C223.318 294.556 223.225 298.859 222.599 299.482C222.146 299.933 218.872 299.986 191.387 299.986C161.357 299.986 160.673 299.972 160.347 299.366C159.883 298.502 159.922 294.434 160.4 293.959C160.96 293.401 222.158 293.401 222.718 293.959ZM98.854 296.769C98.854 299.346 98.9229 299.679 99.5193 299.997C100.037 300.273 100.359 300.238 100.968 299.841C101.696 299.366 101.751 299.137 101.751 296.612V293.895H102.717H103.682V297.742V301.589H102.878C102.377 301.589 102.073 301.407 102.073 301.108C102.073 300.51 101.769 300.512 100.965 301.118C100.065 301.796 98.3316 301.709 97.5664 300.947C97.0086 300.392 96.9226 299.879 96.9226 297.101V293.895H97.8883H98.854V296.769ZM117.072 295.871C116.399 296.828 116.682 297.101 118.347 297.101C119.51 297.101 119.777 296.993 119.777 296.524C119.777 295.137 117.906 294.685 117.072 295.871ZM131.365 297.742V298.703H129.434H127.502V297.742V296.78H129.434H131.365V297.742Z" fill="#F97316"/>
</svg>
