<svg width="266" height="234" viewBox="0 0 266 234" fill="none" xmlns="http://www.w3.org/2000/svg">
<path d="M264 230.671C263.534 231.318 263.064 231.96 262.598 232.598C261.26 233.514 259.672 234.003 258.047 234H7.66807C6.11524 234.001 4.59534 233.555 3.29238 232.716C2.85996 232.149 2.43242 231.578 2 231.006L2.43242 230.77L129.185 160.945C130.31 160.327 131.573 160.002 132.859 160C134.144 159.998 135.409 160.32 136.535 160.936L263.572 230.435L264 230.671Z" fill="#F97316"/>
<path d="M257.939 83.3322L148.306 20.0658C143.695 17.4048 138.465 16.0026 133.14 16C127.815 15.9974 122.583 17.3944 117.969 20.0508L8.06061 83.3322C5.92373 83.3352 3.87524 84.1848 2.36424 85.6947C0.853238 87.2046 0.00302291 89.2515 0 91.3868V225.945C0.0024897 228.081 0.85253 230.128 2.36365 231.638C3.87476 233.148 5.92356 233.998 8.06061 234H257.939C260.076 233.996 262.124 233.147 263.635 231.637C265.146 230.127 265.996 228.081 266 225.945V91.3868C265.997 89.2515 265.147 87.2045 263.636 85.6947C262.125 84.1848 260.076 83.3352 257.939 83.3322ZM265.052 225.945C265.047 227.829 264.296 229.634 262.964 230.966C261.631 232.298 259.824 233.048 257.939 233.052H8.06061C6.17535 233.049 4.36828 232.299 3.0352 230.967C1.70212 229.635 0.951698 227.829 0.948307 225.945V91.3868C0.9506 89.5026 1.70067 87.6962 3.03399 86.3639C4.3673 85.0316 6.17501 84.2821 8.06061 84.2798L117.969 20.9984C122.583 18.342 127.815 16.945 133.14 16.9476C138.465 16.9502 143.695 18.3524 148.306 21.0134L257.939 84.2798C259.825 84.2821 261.633 85.0316 262.966 86.3639C264.299 87.6962 265.049 89.5026 265.052 91.3868V225.945Z" fill="#3F3D56"/>
<path d="M133.142 159C132.315 159.003 131.493 158.865 130.711 158.593L130.568 158.542L130.538 158.223C130.449 158.267 130.359 158.309 130.268 158.349L130.172 158.391L130.077 158.349C129.877 158.261 129.678 158.162 129.486 158.054L42 108.979V8.77588C42.0026 6.44917 42.9297 4.21851 44.5777 2.57328C46.2258 0.928049 48.4604 0.00261157 50.7911 0H215.209C217.54 0.00261157 219.774 0.928049 221.422 2.57328C223.07 4.21851 223.997 6.44917 224 8.77588V109.107L223.879 109.175L136.799 158.054C135.681 158.676 134.422 159.002 133.142 159Z" fill="white"/>
<path d="M133.142 160C132.29 160.003 131.443 159.86 130.639 159.578L130.352 159.476L130.339 159.34L130.18 159.411L129.989 159.327C129.782 159.235 129.577 159.132 129.379 159.02L42 109.715V9.04277C42.0027 6.64531 42.9523 4.34683 44.6405 2.65156C46.3288 0.956305 48.6177 0.00271335 51.0052 0H214.995C217.382 0.00272341 219.671 0.956314 221.359 2.65157C223.048 4.34683 223.997 6.64531 224 9.04277V109.843L136.905 159.02C135.755 159.665 134.459 160.002 133.142 160ZM131.24 158.774C132.982 159.276 134.852 159.066 136.441 158.19L223.052 109.287V9.04277C223.05 6.89767 222.2 4.84112 220.689 3.32431C219.179 1.80749 217.131 0.954285 214.995 0.95187H51.0052C48.869 0.954275 46.821 1.80748 45.3105 3.3243C43.8 4.84111 42.9503 6.89767 42.9479 9.04277V109.158L48.6305 112.363L129.843 158.191C129.954 158.253 130.066 158.312 130.18 158.367C130.294 158.312 130.406 158.253 130.516 158.191L131.154 157.83L131.24 158.774Z" fill="#3F3D56"/>
<path d="M263.759 86.9609L229.377 106.196L223.455 109.511L136.636 158.09C135.557 158.689 134.342 159.002 133.106 159C132.308 159.002 131.515 158.87 130.761 158.609C130.552 158.542 130.346 158.463 130.145 158.373C129.951 158.288 129.762 158.194 129.577 158.09L48.3958 112.693L42.4736 109.384L2.24076 86.8855C2.13136 86.8231 2.05111 86.7202 2.01742 86.5993C1.98372 86.4784 1.9993 86.3491 2.06078 86.2396C2.12242 86.1309 2.22489 86.051 2.34568 86.0174C2.46647 85.9838 2.59571 85.9993 2.70505 86.0604L42.4736 108.299L48.3958 111.609L130.041 157.265C130.312 157.416 130.594 157.547 130.884 157.656C131.008 157.703 131.136 157.746 131.264 157.784C132.075 158.031 132.928 158.113 133.771 158.024C134.615 157.935 135.431 157.677 136.172 157.265L223.455 108.431L229.377 105.117L263.295 86.1406C263.349 86.1102 263.409 86.0908 263.47 86.0834C263.532 86.076 263.594 86.0807 263.654 86.0974C263.714 86.114 263.77 86.1422 263.819 86.1803C263.868 86.2185 263.909 86.2658 263.939 86.3197C263.97 86.3736 263.989 86.4329 263.997 86.4943C264.004 86.5556 263.999 86.6179 263.983 86.6774C263.966 86.7369 263.938 86.7926 263.899 86.8413C263.861 86.8899 263.813 86.9306 263.759 86.9609Z" fill="#3F3D56"/>
<path d="M78.1818 31H64.8182C63.8055 31 62.8344 30.6313 62.1183 29.9749C61.4023 29.3185 61 28.4283 61 27.5C61 26.5717 61.4023 25.6815 62.1183 25.0251C62.8344 24.3687 63.8055 24 64.8182 24H78.1818C79.1945 24 80.1656 24.3687 80.8817 25.0251C81.5977 25.6815 82 26.5717 82 27.5C82 28.4283 81.5977 29.3185 80.8817 29.9749C80.1656 30.6313 79.1945 31 78.1818 31Z" fill="#F97316"/>
<path d="M93.2597 44H64.7403C63.7483 44 62.7969 43.6313 62.0955 42.9749C61.3941 42.3185 61 41.4283 61 40.5C61 39.5717 61.3941 38.6815 62.0955 38.0251C62.7969 37.3687 63.7483 37 64.7403 37H93.2597C94.2517 37 95.203 37.3687 95.9045 38.0251C96.6059 38.6815 97 39.5717 97 40.5C97 41.4283 96.6059 42.3185 95.9045 42.9749C95.203 43.6313 94.2517 44 93.2597 44Z" fill="#E6E6E6"/>
<path d="M174.233 78H92.7672C91.7681 78 90.8099 77.6313 90.1034 76.9749C89.3969 76.3185 89 75.4283 89 74.5C89 73.5717 89.3969 72.6815 90.1034 72.0251C90.8099 71.3687 91.7681 71 92.7672 71H174.233C175.232 71 176.19 71.3687 176.897 72.0251C177.603 72.6815 178 73.5717 178 74.5C178 75.4283 177.603 76.3185 176.897 76.9749C176.19 77.6313 175.232 78 174.233 78Z" fill="#F97316"/>
<path d="M182.18 93H83.8198C82.8067 93 81.8352 92.5786 81.1188 91.8284C80.4024 91.0783 80 90.0609 80 89C80 87.9391 80.4024 86.9217 81.1188 86.1716C81.8352 85.4214 82.8067 85 83.8198 85H182.18C183.193 85 184.165 85.4214 184.881 86.1716C185.598 86.9217 186 87.9391 186 89C186 90.0609 185.598 91.0783 184.881 91.8284C184.165 92.5786 183.193 93 182.18 93Z" fill="#E6E6E6"/>
<path d="M182.18 107H83.8198C82.8067 107 81.8352 106.631 81.1188 105.975C80.4024 105.318 80 104.428 80 103.5C80 102.572 80.4024 101.682 81.1188 101.025C81.8352 100.369 82.8067 100 83.8198 100H182.18C183.193 100 184.165 100.369 184.881 101.025C185.598 101.682 186 102.572 186 103.5C186 104.428 185.598 105.318 184.881 105.975C184.165 106.631 183.193 107 182.18 107Z" fill="#E6E6E6"/>
</svg>
