<svg width="328" height="328" viewBox="0 0 328 328" fill="none" xmlns="http://www.w3.org/2000/svg">
<g clip-path="url(#clip0_111_2)">
<path d="M166.935 214.114C196.337 214.114 220.172 190.279 220.172 160.877C220.172 131.474 196.337 107.639 166.935 107.639C137.532 107.639 113.697 131.474 113.697 160.877C113.697 190.279 137.532 214.114 166.935 214.114Z" fill="#FFB6B6"/>
<path d="M136.373 221.987L133.968 197.675L181.997 188.694L210.358 257.746L161.034 314.468L125.891 245.416L136.373 221.987Z" fill="#FFB6B6"/>
<path d="M133.196 209.844L143.696 212.217C143.696 212.217 135.442 186.042 138.244 183.543C141.045 181.044 147.911 184.982 147.911 184.982L155.126 193.071L163.914 184.123C163.914 184.123 173.455 172.259 177.191 168.928C180.926 165.596 174.926 153.228 174.926 153.228C174.926 153.228 230.348 138.284 209.725 111.402C209.725 111.402 197.634 90.326 193.697 97.1917C189.759 104.057 185.064 93.1533 185.064 93.1533L170.727 95.8796C170.727 95.8796 142.432 79.1957 115.576 114.887C88.7198 150.579 133.196 209.844 133.196 209.844Z" fill="#2F2E41"/>
<path d="M267.061 291.593C237.966 315.182 201.973 328 164 328C129.326 328 96.2976 317.309 68.6704 297.494C68.7197 296.976 68.769 296.464 68.8122 295.952C69.5459 287.937 70.1994 280.144 70.631 273.683C72.3018 248.596 130.83 231.875 130.83 231.875C130.83 231.875 131.095 232.14 131.625 232.603C134.856 235.439 147.97 245.723 170.967 248.596C191.473 251.16 198.224 238.996 200.265 233.17C200.882 231.394 201.067 230.204 201.067 230.204L261.266 258.633C265.193 264.243 266.728 276.328 267.03 289.91C267.043 290.471 267.055 291.026 267.061 291.593Z" fill="white"/>
<path d="M279.965 48.0348C248.99 17.0597 207.805 0 164 0C120.195 0 79.0098 17.0597 48.0348 48.0348C17.0597 79.0098 0 120.195 0 164C0 203.983 14.2113 241.783 40.254 271.63C42.7387 274.484 45.3343 277.265 48.0348 279.965C48.6698 280.6 49.311 281.235 49.9584 281.852C51.6847 283.523 53.4418 285.157 55.2298 286.741C56.3149 287.709 57.4124 288.658 58.5221 289.589C59.3914 290.323 60.2608 291.044 61.1424 291.754C61.1609 291.772 61.1733 291.784 61.1917 291.797C63.6394 293.77 66.1302 295.669 68.6704 297.494C96.2976 317.309 129.326 328 164 328C201.973 328 237.966 315.182 267.061 291.593C269.435 289.67 271.759 287.672 274.04 285.607C276.056 283.782 278.029 281.901 279.965 279.965C280.576 279.355 281.186 278.738 281.784 278.116C283.449 276.402 285.064 274.657 286.642 272.887C313.382 242.849 328 204.55 328 164C328 120.195 310.94 79.0098 279.965 48.0348ZM286.242 271.352C284.7 273.103 283.122 274.829 281.507 276.513C278.991 279.133 276.396 281.673 273.714 284.121C272.696 285.058 271.667 285.97 270.625 286.877C269.441 287.906 268.245 288.917 267.03 289.91C257.455 297.771 246.968 304.553 235.753 310.077C231.32 312.266 226.776 314.257 222.128 316.039C204.069 322.969 184.469 326.767 164 326.767C144.246 326.767 125.306 323.228 107.778 316.754C100.583 314.103 93.628 310.953 86.9508 307.346C85.9705 306.816 84.9964 306.279 84.0284 305.731C78.9358 302.845 74.0097 299.695 69.2808 296.291C69.1267 296.18 68.9663 296.063 68.8122 295.952C65.4459 293.523 62.172 290.964 59.0092 288.276C57.8501 287.296 56.7033 286.303 55.5751 285.286C53.7378 283.652 51.9375 281.969 50.1803 280.243C46.851 276.981 43.6696 273.584 40.6301 270.051C16.0856 241.542 1.23308 204.476 1.23308 164C1.23308 74.2501 74.2501 1.23308 164 1.23308C253.75 1.23308 326.767 74.2501 326.767 164C326.767 205.099 311.458 242.683 286.242 271.352Z" fill="#3F3D56"/>
</g>
<defs>
<clipPath id="clip0_111_2">
<rect width="328" height="328" fill="white"/>
</clipPath>
</defs>
</svg>
