<svg width="210" height="254" viewBox="0 0 210 254" fill="none" xmlns="http://www.w3.org/2000/svg">
<path d="M68.2983 9.01855C68.2983 9.01855 61.383 92.1671 59.8983 109.984C58.8802 121.153 56.3838 132.137 52.4745 142.649C52.4745 142.649 49.5049 148.588 49.5049 154.527L15.8501 215.691C15.8501 215.691 5.56586 223.251 7.0506 229.19C8.53534 235.129 0.850098 238.691 0.850098 238.691L36.2917 245.522C36.2917 245.522 34.8069 241.068 39.2612 239.583C43.7155 238.098 47.2612 225.22 47.2612 225.22L97.0175 144.134L132.652 69.8955C132.652 69.8955 153.439 136.71 157.893 144.134C157.893 144.134 174.225 227.281 177.195 234.705C180.164 242.129 181.649 242.129 180.164 245.098C178.68 248.068 178.68 251.037 180.164 252.522C181.649 254.007 209.86 252.522 209.86 252.522L202.436 147.104L189.073 20.8981L120.774 0.111328L68.2983 9.01855Z" fill="#2F2E41"/>
</svg>
