<svg width="257" height="158" viewBox="0 0 257 158" fill="none" xmlns="http://www.w3.org/2000/svg">
<path d="M239.364 17.6204L29.0737 1.03032C26.6278 0.837707 24.1678 1.12876 21.8344 1.88685C19.5009 2.64495 17.3396 3.85524 15.474 5.44862C13.6083 7.042 12.0747 8.98727 10.9608 11.1734C9.8469 13.3594 9.17451 15.7435 8.98201 18.1895L0.894544 120.64C0.505801 125.581 2.09528 130.475 5.31349 134.244C8.5317 138.014 13.1152 140.351 18.0561 140.742L228.346 157.332C230.792 157.524 233.252 157.233 235.585 156.475C237.919 155.717 240.08 154.507 241.946 152.913C243.812 151.32 245.345 149.375 246.459 147.189C247.573 145.003 248.245 142.619 248.438 140.173L256.123 42.7972L256.278 40.8078L256.523 37.712C256.715 35.2661 256.424 32.8062 255.666 30.4727C254.908 28.1393 253.698 25.978 252.105 24.1123C250.511 22.2466 248.566 20.7131 246.38 19.5992C244.194 18.4853 241.81 17.8129 239.364 17.6204ZM233.154 106.758L231.822 123.637C231.578 126.618 230.164 129.381 227.889 131.323C225.614 133.264 222.662 134.226 219.68 133.998L191.547 131.781C188.565 131.537 185.802 130.123 183.861 127.848C181.919 125.573 180.957 122.622 181.186 119.639L182.518 102.761C182.763 99.78 184.177 97.0172 186.452 95.0759C188.727 93.1346 191.678 92.1725 194.66 92.3998L222.784 94.6191C225.765 94.8637 228.528 96.2772 230.471 98.5513C232.413 100.825 233.378 103.776 233.154 106.758ZM14.0205 97.957C14.2387 95.2258 15.5315 92.6927 17.6151 90.9134C19.6987 89.1341 22.403 88.254 25.1347 88.4661L62.6403 91.4267C63.9951 91.5313 65.3161 91.9019 66.5277 92.5173C67.7392 93.1326 68.8177 93.9807 69.7013 95.013C70.585 96.0454 71.2565 97.2417 71.6776 98.5337C72.0986 99.8257 72.2609 101.188 72.1553 102.543C72.0496 103.898 71.678 105.218 71.0616 106.429C70.4453 107.64 69.5964 108.718 68.5633 109.601C67.5303 110.484 66.3334 111.154 65.041 111.574C63.7487 111.994 62.3862 112.156 61.0316 112.049L61.0122 112.054L23.5066 109.093C22.1521 108.986 20.8319 108.613 19.6217 107.995C18.4116 107.377 17.3351 106.527 16.454 105.492C15.5729 104.458 14.9044 103.26 14.4868 101.967C14.0693 100.674 13.9108 99.3114 14.0205 97.957ZM22.0497 14.4753L21.7933 13.4261L22.8722 13.3273C23.294 13.2819 33.2709 12.3863 41.0371 17.9338C48.8034 23.4814 51.1849 33.2146 51.2883 33.6218L51.5351 34.6734L50.4586 34.782C48.9306 34.8956 47.396 34.8854 45.8696 34.7516C41.0143 34.4674 36.3246 32.8835 32.2912 30.1657C24.525 24.6181 22.1435 14.8848 22.0497 14.4753Z" fill="#1976D2"/>
</svg>
