<svg width="182" height="170" viewBox="0 0 182 170" fill="none" xmlns="http://www.w3.org/2000/svg">
<path d="M181.013 4.55883C180.341 5.02107 179.669 5.48333 178.997 5.9627C169.996 12.2239 161.518 19.2061 153.647 26.8404C153.029 27.421 152.411 28.0187 151.811 28.6158C133.045 47.2105 117.894 69.1278 107.128 93.2535C102.853 102.858 99.3149 112.773 96.5443 122.914C92.7186 136.919 89.685 152.409 81.6914 163.991C80.871 165.209 79.9759 166.375 79.0114 167.482L4.09561 169.435C3.92313 169.354 3.75027 169.29 3.57695 169.209L0.589355 169.424C0.695725 168.891 0.817504 168.341 0.923874 167.808C0.984284 167.498 1.06139 167.188 1.1218 166.879C1.16737 166.672 1.21379 166.466 1.24307 166.277C1.25798 166.208 1.27373 166.139 1.28908 166.088C1.31839 165.899 1.36567 165.727 1.39543 165.555C2.06762 162.476 2.76263 159.396 3.48044 156.316C3.48 156.298 3.47999 156.298 3.49623 156.281C9.02553 132.824 16.5617 109.623 27.3798 88.3029C27.7055 87.6616 28.0299 87.0031 28.3898 86.3609C33.3194 76.778 39.024 67.614 45.4466 58.9605C48.9787 54.2334 52.7478 49.6881 56.7394 45.3422C67.0749 34.1326 79.1092 24.6185 92.4011 17.1487C118.901 2.26152 149.867 -3.98488 178.808 3.93224C179.548 4.13529 180.273 4.33867 181.013 4.55883Z" fill="#28D94F"/>
</svg>
