<svg width="68" height="58" viewBox="0 0 68 58" fill="none" xmlns="http://www.w3.org/2000/svg">
<path d="M6.27491 57.155L5.40333 55.1306C5.29103 54.8688 -5.73583 28.8015 4.0381 12.7224C8.56251 5.27853 16.7896 1.07588 28.4898 0.232133C46.7969 -1.0916 59.3267 3.25113 65.7408 13.1306C66.8162 14.8049 67.4207 16.7381 67.4907 18.7269C67.5606 20.7157 67.0934 22.6866 66.1382 24.4324C65.183 26.1781 63.775 27.6343 62.0624 28.6478C60.3498 29.6612 58.3958 30.1945 56.4058 30.1916H56.1597L52.7959 25.8239L52.6001 26.2487C51.3823 28.8835 48.5855 30.3259 45.3096 30.0099C44.7525 29.9699 44.2588 30.4509 43.8623 31.4802C43.7289 31.9304 43.4768 32.3365 43.1324 32.6556C42.7879 32.9748 42.3639 33.1954 41.9048 33.2942C39.4844 33.7653 36.0342 30.7165 34.4898 29.197C34.4302 29.5467 34.2962 29.8796 34.0969 30.1731C33.8976 30.4666 33.6376 30.7138 33.3345 30.8982C31.7071 31.8372 29.1744 30.6106 28.4473 30.2199C22.6558 31.4504 18.9068 31.1213 17.3008 29.2429C16.212 36.9465 13.875 50.8127 11.0728 51.5813C10.7799 51.6486 10.4731 51.62 10.1978 51.4996C9.92239 51.3793 9.69301 51.1735 9.54353 50.9128C8.86872 50.0368 8.2657 49.6003 7.88923 49.7229C6.97761 50.0129 6.43952 53.0149 6.36238 54.9524L6.27491 57.155Z" fill="#2F2E41"/>
</svg>
