<svg width="182" height="166" viewBox="0 0 182 166" fill="none" xmlns="http://www.w3.org/2000/svg">
<path d="M180.87 2.51391C144.146 10.7964 109.83 30.8648 85.0496 59.2798C79.6921 65.423 74.792 72.1212 71.589 79.6597C68.5233 87.0318 67.4876 95.0903 68.5896 102.998C69.469 110.392 71.2247 117.853 70.2915 125.332C69.3078 133.215 64.813 139.761 58.3944 144.297C50.5411 149.848 41.1615 152.247 31.9076 154.273C21.6329 156.523 10.9251 158.697 2.47492 165.372C1.45106 166.181 0.256026 164.545 1.27834 163.737C15.9802 152.124 36.1353 153.955 52.3322 145.605C59.8899 141.709 66.3193 135.511 67.9921 126.897C69.4549 119.364 67.6509 111.668 66.6958 104.19C65.6929 96.3368 66.0392 88.7537 68.7783 81.2605C71.5803 73.5953 76.2288 66.6915 81.4057 60.4382C93.2508 46.3457 107.238 34.2033 122.855 24.4557C140.617 13.232 160.168 5.12935 180.662 0.498412C181.93 0.212302 182.13 2.22967 180.87 2.51391Z" fill="white"/>
</svg>
