<svg width="56" height="21" viewBox="0 0 56 21" fill="none" xmlns="http://www.w3.org/2000/svg">
<path d="M47.4935 3.2974L9.98648 0.338716C8.87825 0.251295 7.76363 0.383014 6.7063 0.726351C5.64897 1.06969 4.66962 1.6179 3.82416 2.33972C2.9787 3.06155 2.28371 3.94284 1.77884 4.93326C1.27397 5.92368 0.969107 7.00386 0.881685 8.11209C0.794263 9.22033 0.925983 10.3349 1.26932 11.3923C1.61266 12.4496 2.1609 13.429 2.88272 14.2744C3.60455 15.1199 4.48584 15.8149 5.47626 16.3197C6.46668 16.8246 7.54683 17.1295 8.65506 17.2169L46.1621 20.1756C48.4003 20.3521 50.6169 19.6323 52.3244 18.1745C54.0319 16.7167 55.0903 14.6404 55.2668 12.4022C55.4434 10.164 54.7236 7.94735 53.2658 6.23987C51.808 4.53239 49.7317 3.47395 47.4935 3.2974Z" fill="#1976D2"/>
</svg>
