<svg width="48" height="241" viewBox="0 0 48 241" fill="none" xmlns="http://www.w3.org/2000/svg">
<path d="M46.7871 2.4203C22.4517 31.1438 7.13509 67.8278 4.45709 105.435C3.87809 113.566 3.99839 121.864 5.97965 129.811C7.97033 137.543 11.9952 144.601 17.6361 150.252C22.7898 155.626 28.6838 160.526 32.4414 167.059C36.4021 173.946 36.7542 181.878 34.3609 189.365C31.4325 198.526 25.3873 206.087 19.2186 213.277C12.3695 221.259 5.1289 229.442 2.40064 239.859C2.07007 241.121 0.130929 240.535 0.460999 239.274C5.20773 221.15 22.4029 210.478 30.3079 194.059C33.9965 186.398 35.3986 177.579 31.5478 169.693C28.1804 162.798 22.1067 157.739 16.8414 152.343C11.3128 146.677 7.02372 140.414 4.6993 132.782C2.32156 124.975 1.87659 116.664 2.24516 108.554C3.21809 90.1703 7.07547 72.0539 13.676 54.8685C21.1003 35.2132 31.8323 16.9728 45.4075 0.936379C46.2481 -0.0558307 47.6222 1.43458 46.7871 2.4203Z" fill="white"/>
</svg>
