<svg width="127" height="213" viewBox="0 0 127 213" fill="none" xmlns="http://www.w3.org/2000/svg">
<path d="M126.042 39.0892L88.9244 16.6006C88.9244 16.6006 87.8955 2.63581 77.3196 1.97871C72.0101 1.64882 64.0423 1.14443 52.0851 0.373499C49.5581 0.210569 47.8529 14.0357 44.9569 13.8481L5.77608 24.2415L11.7152 125.206C11.7152 125.206 2.80657 165.295 5.77608 172.718C8.74559 180.142 -1.64774 183.112 1.32177 184.597C4.29128 186.081 1.32177 196.475 1.32177 196.475C1.32177 196.475 59.2277 226.17 123.073 203.898L117.134 184.596C117.942 182.073 118.094 179.386 117.574 176.788C117.054 174.19 115.881 171.767 114.164 169.749C114.164 169.749 120.103 160.84 112.679 153.416C112.679 153.416 115.649 140.053 108.225 134.114L106.74 113.328L111.195 102.934L126.042 39.0892Z" fill="#E6E6E6"/>
</svg>
